<svg width="150" height="75" viewBox="0 0 150 75" fill="none" xmlns="http://www.w3.org/2000/svg">
<g clip-path="url(#clip0_358_1202)">
<rect width="150" height="75" fill="white"/>
<path d="M38.1476 0.909668C37.7045 4.96649 34.5908 5.0574 34.5908 5.0574C38.0226 6.09149 38.1476 8.92103 38.1476 8.75058C38.1476 8.92103 38.2726 6.09149 41.7045 5.0574C41.7045 5.0574 38.5908 4.96649 38.1476 0.909668Z" fill="url(#paint0_linear_358_1202)"/>
<path d="M42.2273 7.22736C41.9773 9.47736 40.25 9.52281 40.25 9.52281C42.1591 10.091 42.2273 11.6592 42.2273 11.5683C42.2273 11.6592 42.2955 10.091 44.2045 9.52281C44.2045 9.53417 42.4773 9.47736 42.2273 7.22736Z" fill="url(#paint1_linear_358_1202)"/>
<path d="M19.2956 68.091H35.2388C35.3751 68.091 37.0001 67.3637 37.0229 67.341L48.341 55.7728C48.7956 55.3069 49.0569 54.6819 49.0569 54.0342V37.6137C49.0569 36.966 48.8069 36.341 48.341 35.8751L37.0229 24.3069C36.557 23.8296 35.9092 23.5569 35.2388 23.5569H19.2956C18.6251 23.5569 17.9774 23.8296 17.5115 24.3069L6.20468 35.8751C5.75013 36.341 5.48877 36.966 5.48877 37.6137V54.0342C5.48877 54.6819 5.73877 55.3069 6.20468 55.7728L17.5229 67.341C17.5456 67.3637 17.5683 67.3864 17.591 67.4092M34.4888 66.2273H20.057C19.3865 66.2273 18.7388 65.9546 18.2729 65.4773L8.02286 55.0001C7.56832 54.5342 7.30695 53.9092 7.30695 53.2614V38.3978C7.30695 37.7501 7.55695 37.1251 8.02286 36.6592L18.2729 26.1819C18.7388 25.7046 19.3865 25.4319 20.057 25.4319H34.4888C35.1592 25.4319 35.807 25.7046 36.2729 26.1819L46.5229 36.6592C46.9774 37.1251 47.2388 37.7501 47.2388 38.3978V53.2614C47.2388 53.9092 46.9888 54.5342 46.5229 55.0001L36.2729 65.4773C35.807 65.9546 35.1592 66.2273 34.4888 66.2273Z" fill="url(#paint2_linear_358_1202)"/>
<path d="M34.6251 22.1826H19.9206C19.4092 22.1826 18.9888 21.8758 18.9888 21.5008V20.4667C18.9888 20.0917 19.4092 19.7849 19.9206 19.7849H34.6138C35.1251 19.7849 35.5456 20.0917 35.5456 20.4667V21.5008C35.557 21.8758 35.1365 22.1826 34.6251 22.1826Z" fill="url(#paint3_linear_358_1202)"/>
<path d="M34.9091 10.0918L31.75 6.17132C31.3978 5.7395 30.8978 5.4895 30.375 5.4895H24.1137C23.5796 5.4895 23.0796 5.75087 22.7273 6.19405L19.6364 10.1031C19.0682 10.8304 19 11.8872 19.4887 12.6827L22.4887 17.6145C22.841 18.1827 23.4091 18.5236 24.0228 18.5236H30.5569C31.1705 18.5236 31.75 18.1827 32.091 17.6145L35.0796 12.694C35.5569 11.8986 35.4887 10.7963 34.9091 10.0918ZM31.6364 10.8872L28.3182 6.56905H30.375C30.6023 6.56905 30.8296 6.68268 30.9887 6.87587L34.1478 10.7963C34.1705 10.8304 34.1932 10.8531 34.216 10.8872H31.6364ZM34.2955 11.9668C34.2728 12.0122 34.25 12.0577 34.2273 12.0918L31.2387 17.0122C31.0796 17.2736 30.8182 17.4327 30.5455 17.4327H29.7046L31.7841 11.9668H34.2955ZM30.6932 11.9668L28.6137 17.4327H25.9319L23.8523 11.9668H30.6932ZM24.216 10.8872L27.2728 6.90996L30.3296 10.8872H24.216ZM24.841 17.4327H24.0114C23.7387 17.4327 23.4773 17.2736 23.3182 17.0122L20.3182 12.0918C20.2955 12.0577 20.2728 12.0122 20.25 11.9668H22.75L24.841 17.4327ZM20.3296 10.8872C20.3523 10.8531 20.375 10.819 20.3978 10.7963L23.4887 6.88723C23.6478 6.68268 23.875 6.56905 24.1137 6.56905H26.2387L22.9205 10.8872H20.3296Z" fill="url(#paint4_linear_358_1202)"/>
<path d="M37.3524 37.5233C35.9547 38.3301 34.7729 39.0688 33.5456 39.7051C33.2161 39.8756 32.6479 39.8415 32.3184 39.6711C30.8525 38.8983 29.4434 37.9892 27.9661 37.2392C27.5797 37.0461 26.9206 37.0461 26.5456 37.2506C24.4661 38.3756 22.4547 39.6029 20.3979 40.7506C19.8184 41.0801 19.5911 41.4551 19.5911 42.1256C19.6252 44.4892 19.5684 46.8529 19.6365 49.2051C19.6479 49.637 19.9888 50.2279 20.3525 50.4551C22.3979 51.7165 24.4774 52.9097 26.5797 54.0461C26.9547 54.2506 27.6252 54.2165 28.0002 54.012C29.9774 52.9551 31.8752 51.7506 33.8638 50.7051C34.7047 50.262 35.0456 49.7051 34.932 48.7847C34.8638 48.1824 34.9206 47.5801 34.9206 46.7392C32.7956 47.9665 30.8297 49.0233 28.9434 50.2051C28.1706 50.6938 27.5797 50.6597 26.8524 50.1824C25.9888 49.6029 25.057 49.1142 23.9661 48.4779C29.0797 45.5233 34.0797 42.637 39.2047 39.6711C39.2502 40.0915 39.307 40.3756 39.307 40.6483C39.307 44.3301 39.2956 48.0006 39.3184 51.6824C39.3184 52.3415 39.1252 52.7279 38.5456 53.0574C34.9774 55.0801 31.4434 57.1597 27.8638 59.1597C27.5456 59.3415 26.9547 59.3415 26.6365 59.1597C23.0343 57.1256 19.4434 55.0574 15.8865 52.9438C15.5456 52.7392 15.2275 52.1824 15.2275 51.7847C15.182 47.6824 15.182 43.5801 15.2275 39.4779C15.2275 39.0801 15.557 38.5233 15.8979 38.3188C19.4206 36.2279 22.9775 34.1824 26.5456 32.1597C26.8752 31.9665 27.4775 31.887 27.7843 32.0688C30.8184 33.762 33.8297 35.5233 36.8411 37.2733C36.9888 37.3301 37.1252 37.3983 37.3524 37.5233Z" fill="url(#paint5_linear_358_1202)"/>
<path d="M30.0456 41.6592C27.5228 43.1138 25.2047 44.4433 22.6819 45.8979C22.6819 44.8524 22.6137 44.0456 22.716 43.2615C22.7501 42.966 23.1138 42.6365 23.4092 42.4547C24.3183 41.8751 25.3183 41.432 26.1933 40.807C27.0683 40.182 27.8297 40.1479 28.6819 40.7956C29.0342 41.0911 29.4433 41.2956 30.0456 41.6592Z" fill="url(#paint6_linear_358_1202)"/>
<path d="M101.443 25.5783V22.5897H92.0683V25.5783H95.1933V39.4419H98.3183V25.5783H101.443ZM91.091 25.5783V22.5897H82.5229V39.4419H85.6479V32.5328H90.8524V29.5442H85.6479V25.5783H91.091ZM79.2501 39.4419V22.5897H76.1251V39.4419H79.2501ZM74.0797 31.2601V30.851H63.0683V33.7715H70.0456C69.1365 35.6465 67.307 36.7374 65.1024 36.7374C61.7956 36.7374 59.2615 34.2488 59.2615 31.0328C59.2615 27.8624 61.591 25.3056 64.9206 25.3056C66.8865 25.3056 68.5001 26.0783 69.5456 27.5442H73.216C72.1251 24.5101 68.6592 22.3056 64.9888 22.3056C60.0683 22.3056 56.1138 26.1578 56.1138 30.9874C56.1138 35.9078 60.1024 39.7488 65.2842 39.7488C70.2501 39.7374 74.0797 35.8397 74.0797 31.2601Z" fill="black"/>
<path d="M143.739 57.0662C143.739 54.7821 142.807 53.3048 139.387 52.0321C137.796 51.4412 137.75 51.4185 137.512 51.2821C136.898 50.8957 136.58 50.373 136.58 49.7594C136.58 48.7594 137.284 48.0548 138.307 48.0548C139.353 48.0548 140 48.6912 140.091 49.8389H143.33C143.171 46.873 141.046 45.0548 138.341 45.0548C135.637 45.0548 133.443 47.1798 133.443 49.8389C133.443 51.9639 134.693 53.5775 136.955 54.4185C139.193 55.2594 139.375 55.3275 139.875 55.7139C140.375 56.1003 140.648 56.7366 140.648 57.4185C140.648 58.623 139.716 59.4753 138.364 59.4753C136.978 59.4753 136.216 58.7935 136.08 57.373H132.818C133.091 60.5662 135.398 62.4753 138.364 62.4753C141.387 62.4753 143.739 60.123 143.739 57.0662ZM131.875 57.0662C131.875 54.7821 130.943 53.3048 127.523 52.0321C125.932 51.4412 125.887 51.4185 125.648 51.2821C125.034 50.8957 124.716 50.373 124.716 49.7594C124.716 48.7594 125.421 48.0548 126.443 48.0548C127.489 48.0548 128.137 48.6912 128.228 49.8389H131.466C131.307 46.873 129.182 45.0548 126.478 45.0548C123.773 45.0548 121.58 47.1798 121.58 49.8389C121.58 51.9639 122.83 53.5775 125.091 54.4185C127.33 55.2594 127.512 55.3275 128.012 55.7139C128.512 56.1003 128.784 56.7366 128.784 57.4185C128.784 58.623 127.853 59.4753 126.5 59.4753C125.114 59.4753 124.353 58.7935 124.216 57.373H120.955C121.228 60.5662 123.534 62.4753 126.5 62.4753C129.534 62.4753 131.875 60.123 131.875 57.0662ZM119.387 62.1798V59.1912H113.455V55.2707H119.137V52.2821H113.455V48.3162H119.387V45.3275H110.33V62.1798H119.387ZM105.205 50.8162C105.205 52.5889 104.182 53.373 101.762 53.373H100.228V48.3048H101.614C104.591 48.3162 105.205 49.3162 105.205 50.8162ZM108.512 62.1798L103.955 55.9526C106.989 55.2026 108.353 53.3503 108.353 50.7253C108.353 49.0207 107.739 47.5548 106.568 46.5776C105.478 45.6457 104.262 45.3275 101.966 45.3275H97.1139V62.1798H100.239V55.7253L104.659 62.1798H108.512ZM91.9548 50.5662C91.9548 52.0207 91.1821 52.7821 88.3753 52.7821H87.4662V48.3162H88.5116C90.9094 48.3162 91.9548 48.7935 91.9548 50.5662ZM95.1025 50.5207C95.1025 48.5775 94.2844 46.9866 92.8184 46.1003C91.8639 45.5321 90.7389 45.3275 88.5116 45.3275H84.3412V62.1798H87.4662V55.7707H88.4662C90.8639 55.7707 91.9548 55.5889 92.8866 55.0207C94.2616 54.1685 95.1025 52.4639 95.1025 50.5207ZM82.6934 62.1798L76.8525 53.7935L82.6934 45.3389H79.0685L75.0344 51.2253L71.1139 45.3389H67.398L73.1935 53.7935L67.398 62.1798H71.1139L75.0344 56.3616L79.0685 62.1798H82.6934ZM66.0344 62.1798V59.1912H60.1025V55.2707H65.7844V52.2821H60.1025V48.3162H66.0344V45.3275H56.9775V62.1798H66.0344Z" fill="black"/>
</g>
<defs>
<linearGradient id="paint0_linear_358_1202" x1="34.5864" y1="4.82671" x2="41.7055" y2="4.82671" gradientUnits="userSpaceOnUse">
<stop stop-color="#FECE8A"/>
<stop offset="0.2725" stop-color="#B08436"/>
<stop offset="0.4554" stop-color="#E2BF7D"/>
<stop offset="0.5423" stop-color="#FFE0A1"/>
<stop offset="0.7298" stop-color="#F4D184"/>
<stop offset="1" stop-color="#E6BC51"/>
</linearGradient>
<linearGradient id="paint1_linear_358_1202" x1="40.258" y1="9.40486" x2="44.2033" y2="9.40486" gradientUnits="userSpaceOnUse">
<stop stop-color="#FECE8A"/>
<stop offset="0.2725" stop-color="#B08436"/>
<stop offset="0.4554" stop-color="#E2BF7D"/>
<stop offset="0.5423" stop-color="#FFE0A1"/>
<stop offset="0.7298" stop-color="#F4D184"/>
<stop offset="1" stop-color="#E6BC51"/>
</linearGradient>
<linearGradient id="paint2_linear_358_1202" x1="5.49218" y1="45.8268" x2="49.0535" y2="45.8268" gradientUnits="userSpaceOnUse">
<stop stop-color="#FECE8A"/>
<stop offset="0.2725" stop-color="#B08436"/>
<stop offset="0.4554" stop-color="#E2BF7D"/>
<stop offset="0.5423" stop-color="#FFE0A1"/>
<stop offset="0.7298" stop-color="#F4D184"/>
<stop offset="1" stop-color="#E6BC51"/>
</linearGradient>
<linearGradient id="paint3_linear_358_1202" x1="18.9934" y1="20.9764" x2="35.5524" y2="20.9764" gradientUnits="userSpaceOnUse">
<stop stop-color="#FECE8A"/>
<stop offset="0.2725" stop-color="#B08436"/>
<stop offset="0.4554" stop-color="#E2BF7D"/>
<stop offset="0.5423" stop-color="#FFE0A1"/>
<stop offset="0.7298" stop-color="#F4D184"/>
<stop offset="1" stop-color="#E6BC51"/>
</linearGradient>
<linearGradient id="paint4_linear_358_1202" x1="19.1523" y1="11.9997" x2="35.3925" y2="11.9997" gradientUnits="userSpaceOnUse">
<stop stop-color="#FECE8A"/>
<stop offset="0.2725" stop-color="#B08436"/>
<stop offset="0.4554" stop-color="#E2BF7D"/>
<stop offset="0.5423" stop-color="#FFE0A1"/>
<stop offset="0.7298" stop-color="#F4D184"/>
<stop offset="1" stop-color="#E6BC51"/>
</linearGradient>
<linearGradient id="paint5_linear_358_1202" x1="15.2055" y1="45.6164" x2="39.3403" y2="45.6164" gradientUnits="userSpaceOnUse">
<stop stop-color="#FECE8A"/>
<stop offset="0.2725" stop-color="#B08436"/>
<stop offset="0.4554" stop-color="#E2BF7D"/>
<stop offset="0.5423" stop-color="#FFE0A1"/>
<stop offset="0.7298" stop-color="#F4D184"/>
<stop offset="1" stop-color="#E6BC51"/>
</linearGradient>
<linearGradient id="paint6_linear_358_1202" x1="22.6598" y1="43.1163" x2="30.0442" y2="43.1163" gradientUnits="userSpaceOnUse">
<stop stop-color="#FECE8A"/>
<stop offset="0.2725" stop-color="#B08436"/>
<stop offset="0.4554" stop-color="#E2BF7D"/>
<stop offset="0.5423" stop-color="#FFE0A1"/>
<stop offset="0.7298" stop-color="#F4D184"/>
<stop offset="1" stop-color="#E6BC51"/>
</linearGradient>
<clipPath id="clip0_358_1202">
<rect width="150" height="75" fill="white"/>
</clipPath>
</defs>
</svg>
