<svg width="150" height="75" viewBox="0 0 150 75" fill="none" xmlns="http://www.w3.org/2000/svg">
<rect width="150" height="75" fill="white"/>
<g clip-path="url(#clip0_358_1600)">
<mask id="mask0_358_1600" style="mask-type:luminance" maskUnits="userSpaceOnUse" x="25" y="6" width="100" height="64">
<path d="M125 6H25V69.3334H125V6Z" fill="white"/>
</mask>
<g mask="url(#mask0_358_1600)">
<mask id="mask1_358_1600" style="mask-type:luminance" maskUnits="userSpaceOnUse" x="25" y="6" width="100" height="64">
<path d="M125 6H25V69.3334H125V6Z" fill="white"/>
</mask>
<g mask="url(#mask1_358_1600)">
<path d="M121.522 18.9765C119.422 17.0765 116.717 16.0251 114.055 15.0308C101.26 10.2428 86.8505 5.70813 73.0023 6.01213C59.3329 6.31613 43.7554 11.7755 31.2346 17.1208C30.1257 17.5339 29.0814 18.1011 28.1331 18.8055C23.5639 22.5421 25.338 29.4075 25.338 34.3537C25.338 38.9075 25.2869 43.4611 25.2933 48.0147C25.2933 55.2981 25.4465 56.7231 32.1408 59.7947C37.9225 62.4485 46.1357 64.8045 52.3385 66.4321C67.0163 70.2891 82.9065 70.1687 97.6481 66.8057C105.147 65.0957 111.981 62.3281 118.822 58.9651C120.431 58.2619 121.924 57.3225 123.251 56.1785C125.472 54.0251 124.719 51.7831 124.942 46.3555C125.166 41.0417 124.642 35.7345 124.438 30.4271C124.272 26.1457 125.159 22.1938 121.522 18.9701V18.9765ZM73.2065 11.5601C73.3789 11.1548 75.2039 11.1485 75.4975 11.1231C76.9079 11.1332 78.3165 11.2263 79.7157 11.4018C80.3221 11.4651 82.5173 11.6805 82.8237 11.9781C83.1299 12.2758 82.9065 12.7571 82.8619 13.0421C82.7981 13.4918 83.0023 13.6755 82.6959 14.0365C82.2811 14.5241 81.0623 14.2075 80.4815 14.2011C78.9755 14.2011 77.0865 13.8781 77.0483 14.3531C77.0483 14.6128 77.2653 16.2531 77.2077 16.8358C77.1503 17.4185 77.2077 17.4691 77.8459 17.5388C78.9117 17.6085 79.9711 17.5958 81.0367 17.6655C81.7065 17.6772 82.3725 17.7665 83.0215 17.9315C83.2639 18.0138 83.2001 18.9891 83.1427 19.3818C83.0597 19.9771 83.2065 20.1418 82.6193 20.1671C81.3111 20.2241 79.9519 20.0975 78.6565 20.1671C77.8459 20.2241 77.3419 20.2115 77.3801 20.7435C77.4503 21.4211 77.4311 23.1248 77.7055 23.4161C78.3437 23.6251 81.1389 23.3465 81.9365 23.2641C82.6801 23.1545 83.4313 23.1058 84.1829 23.1185C84.8593 23.1628 84.9487 23.1185 85.0253 23.7518C85.1247 24.2682 85.1865 24.791 85.2103 25.3161C85.1465 26.1775 83.2511 25.7911 82.6577 25.8481C81.6877 25.9495 80.6475 25.9051 79.6455 25.9938C78.4521 26.1015 77.2589 26.1775 76.0655 26.1965C75.7209 26.1965 74.2659 26.3801 73.9531 26.3357C73.7709 26.2865 73.6125 26.1741 73.5065 26.0191C73.3625 25.6128 73.3273 25.1763 73.4043 24.7525C73.7235 23.6885 74.2531 24.0622 74.4191 22.8905C74.5531 21.9532 74.2531 19.9455 74.3105 19.0018C74.4527 17.5073 74.3861 16.0005 74.1127 14.5241C73.8701 13.7325 72.4215 13.2575 73.1491 11.4968L73.2065 11.5601ZM55.3379 47.0585C55.2869 47.5525 55.2359 48.0655 55.2167 48.5657C55.0763 51.6565 53.6341 54.8105 50.8581 56.4065C49.5115 57.1855 48.4841 57.6731 46.8631 57.5591C45.5669 57.3985 44.2862 57.1315 43.0342 56.7611C41.4963 56.3937 40.0668 55.9187 38.5671 55.4437C37.897 55.2347 37.2142 55.0637 36.5505 54.8485L36.0591 54.6775C34.7828 54.2025 33.4235 54.0441 33.9085 52.6065C34.0572 52.1363 34.3089 51.7045 34.6454 51.3421C34.9818 50.9797 35.3949 50.6957 35.8549 50.5101C36.3692 50.3899 36.8562 50.1751 37.2908 49.8767C37.98 49.3637 37.8268 48.9015 37.8651 48.1035C37.8789 47.4989 37.8576 46.8941 37.8013 46.2921C37.8013 45.8867 37.7438 45.4687 37.7375 45.0635C37.6928 42.1501 37.6864 39.2875 37.68 36.8681C37.68 36.4817 37.68 36.1017 37.68 35.7155C37.6395 34.0957 37.7077 32.4749 37.8843 30.8641C38.1395 28.8691 35.4018 27.1655 34.9423 29.5467C34.7381 30.5917 35.9889 31.7887 34.0425 32.0801C31.777 32.4601 31.7005 29.0527 31.994 27.6467C32.5556 24.9805 35.255 24.0811 37.6928 23.6061C38.8606 23.3781 39.3329 23.0868 40.5007 22.8461C41.2538 22.6941 42.6194 22.2761 43.3533 22.1305C44.0941 21.9957 44.8467 21.9363 45.5997 21.9531C47.0123 21.9662 48.4017 22.3103 49.6549 22.9575C50.9081 23.6046 51.9895 24.5365 52.8109 25.6771C53.6875 26.9565 54.2211 28.4365 54.3615 29.9775C54.5657 31.7635 54.7381 33.5685 54.7637 35.3671C54.7799 35.8991 54.8417 36.4289 54.9487 36.9505C55.0455 37.4261 55.1011 37.9093 55.1147 38.3945C55.1147 39.1861 55.1147 39.9841 55.1465 40.7567C55.1849 42.7961 55.5295 44.9937 55.3315 47.0205L55.3379 47.0585ZM56.4101 18.0328C54.5657 18.5458 54.4127 15.9935 55.1337 15.0308C55.5489 14.5068 56.0641 14.0692 56.6501 13.7432C57.2359 13.4171 57.8809 13.209 58.5479 13.1308C59.6073 12.9661 61.1005 12.6685 61.3175 13.9858C61.4555 14.7738 61.5493 15.5688 61.5983 16.3671C61.5983 16.7915 61.5983 17.9505 62.0451 18.2671C62.7215 18.7231 65.1147 18.3178 65.8741 18.1911C66.2377 18.1278 66.4229 17.8302 66.4739 16.7155C66.5219 16.0481 66.5025 15.3777 66.4165 14.7141C66.3503 14.1295 66.3163 13.5418 66.3143 12.9535C66.2621 12.7294 66.2449 12.4987 66.2633 12.2695C66.4229 11.6805 67.2077 11.7438 67.7757 11.7248C68.1075 11.7248 68.4139 11.6805 68.7585 11.6425C69.1031 11.6045 69.1861 11.5158 69.3967 11.8388C69.6519 12.2631 69.3457 12.8078 69.3967 13.2575C69.4477 13.7071 69.4477 14.3278 69.4477 14.8851C69.4477 15.8668 69.5753 16.8548 69.5753 17.8365C69.5753 19.7365 69.5051 21.0031 69.4413 23.1438C69.4413 23.7265 69.2881 24.6068 69.2563 25.1831C69.2563 25.4871 69.3775 25.9938 69.2053 26.2597C68.9435 26.6715 66.6525 26.7095 66.2187 26.4055C65.7847 26.1015 66.3079 23.5238 66.2187 22.4091C66.1675 21.7378 66.3717 20.9081 65.9443 20.9145C65.2039 20.9145 62.6385 20.8068 62.1153 21.1615C61.5919 21.5161 61.8153 22.9538 61.7961 23.3655C61.7451 24.4358 62.0067 26.5321 61.5855 26.6017C60.5581 26.7475 58.8989 27.2351 58.8223 26.0635C58.7301 23.6559 58.7811 21.245 58.9755 18.8435C59.0201 18.0455 59.3265 14.7331 57.5461 15.6325C56.7037 16.0568 57.3737 16.2658 57.4503 16.8168C57.5269 17.3678 56.8887 17.9188 56.4165 18.0455L56.4101 18.0328ZM57.5077 31.3897C57.1057 30.6551 57.0801 29.2871 57.7821 29.1035C65.1847 27.8367 71.7451 29.1415 79.2371 28.4131C81.4515 28.1977 90.0349 29.0465 92.4087 26.9311C93.1809 26.2471 92.8939 25.0311 92.9577 23.5491C92.9895 22.7575 91.2601 20.1481 90.4049 18.9005C89.5945 17.6973 88.6551 16.5846 87.6035 15.5818C86.8121 14.8598 85.2933 14.0111 86.2825 12.8395C86.7547 12.2821 88.0885 11.5728 88.7585 12.3201C89.6711 13.3081 90.8899 14.1315 91.5919 15.1891C92.2229 15.974 92.7885 16.8085 93.2831 17.6845C93.6069 18.2319 94.0603 18.6927 94.6041 19.0271C95.4465 19.3881 96.6079 14.5431 98.0629 14.1315C98.9181 13.8908 100.654 14.7648 100.788 15.2208C101.043 16.1265 99.1159 18.8371 98.3055 19.9328C97.2971 21.2945 96.4803 22.3458 96.3909 23.0108C96.1421 25.7468 97.0291 29.3947 93.5895 30.6805C91.5473 31.4467 89.8179 30.8641 87.7247 30.9465C85.7337 31.0225 83.7425 31.1111 81.7069 31.0667C76.8057 30.9655 71.9047 30.9781 67.0291 31.1427C64.2913 31.2315 61.9237 31.8267 59.5945 31.5227C58.9563 31.4405 57.7183 31.7825 57.5013 31.3897H57.5077ZM76.3717 38.0525C76.2441 40.6997 76.0271 43.3787 75.9443 46.0515C75.8613 48.5341 75.8867 51.0105 75.8229 53.4931C75.7911 54.6711 75.8229 55.8807 75.6953 57.0525C75.5677 58.2241 75.6315 59.3387 75.0253 60.3141C74.1127 61.7835 72.6833 62.3345 71.0623 62.4547C70.0859 62.5245 69.5435 62.8221 68.5543 62.7461C68.4459 62.7461 67.5843 62.7145 67.4759 62.6955C66.3715 62.4721 65.2905 62.1477 64.2467 61.7265C61.6941 60.7385 60.6793 57.8061 60.3667 56.5901C59.6839 53.9175 59.7285 50.9915 59.7923 48.4011C59.8371 46.3871 60.0477 44.3477 59.9519 42.3275C59.8587 40.3741 59.6457 38.4283 59.3137 36.5007C59.0585 35.0061 59.6009 34.2587 61.1581 34.0371C61.8345 33.9421 63.0405 33.9231 63.5957 34.3981C64.0071 34.9113 64.2319 35.5473 64.2339 36.2031C64.3169 37.0327 64.5531 37.8561 64.5849 38.6985C64.6615 40.6555 64.6935 42.6315 64.6487 44.6075C64.6487 45.2407 64.6487 45.8741 64.6487 46.5075C64.6487 46.7735 64.6487 47.0837 64.6487 47.4321C64.6105 50.4151 64.2723 55.3995 66.0527 57.1917C66.4037 57.5087 66.8267 57.7365 67.2857 57.8557C67.7449 57.9749 68.2261 57.9819 68.6885 57.8761C69.1509 57.7703 69.5805 57.5547 69.9405 57.2481C70.3007 56.9413 70.5805 56.5527 70.7559 56.1151C71.0763 54.9407 71.2603 53.7337 71.3047 52.5177C71.5409 50.4405 71.4451 48.4137 71.5345 46.3237C71.6813 43.6679 71.6813 41.0059 71.5345 38.3501C71.4771 37.4255 71.0751 35.8865 71.4899 35.0251C71.8895 34.4767 72.4733 34.0881 73.1363 33.9295C75.7847 33.2455 76.5377 36.0447 76.4357 38.0587L76.3717 38.0525ZM95.9379 59.1995C94.7831 60.1825 93.4361 60.9177 91.9813 61.3591C90.4693 61.8855 88.9089 62.2631 87.3227 62.4865C87.0383 62.5179 86.7565 62.5709 86.4803 62.6447C85.9697 62.7777 85.2039 62.8157 84.6487 62.9551C83.6791 63.1431 82.6801 63.1215 81.7195 62.8917C80.8453 62.7461 79.8945 62.7461 79.9455 61.7961C79.9961 60.5913 80.5207 59.4543 81.4069 58.6295C81.8089 58.2685 82.1727 58.1545 82.3195 57.6225C82.3863 57.0197 82.3539 56.4099 82.2237 55.8175C82.2237 55.5705 82.0897 50.4467 82.0897 50.4467C82.0897 48.4327 82.0897 46.4125 82.2109 44.3985C82.2557 43.5055 82.2747 42.5935 82.3897 41.7067C82.4337 40.6633 82.2373 39.6235 81.8153 38.6667C81.5919 38.2361 80.5389 37.2417 80.3157 36.7225C79.9773 35.9877 79.6775 34.6451 80.4879 34.2777C81.7323 33.7331 83.4681 34.0815 84.7955 34.0181C86.3179 34.0087 87.8397 34.0913 89.3519 34.2651C91.4579 34.4361 93.1235 34.7717 94.8657 36.0447C95.2359 36.3107 96.5761 38.2995 96.7803 38.5147C97.0391 38.7237 97.2557 38.9793 97.4183 39.2685C98.3817 41.3075 99.0003 43.4901 99.2499 45.7285C99.6201 49.0217 98.4649 56.9891 95.9251 59.2121L95.9379 59.1995ZM116.965 52.9927C116.572 53.6553 115.999 54.1951 115.313 54.5507L114.949 54.7915C113.859 55.4611 112.667 55.9509 111.42 56.2417C110.633 56.4545 109.86 56.7125 109.103 57.0145C107.738 57.5845 106.359 58.0405 104.968 58.5027C104.397 58.6955 103.802 58.8105 103.2 58.8447C100.009 58.9397 102.186 55.2285 103.149 53.9555C103.915 52.9485 103.647 51.6375 103.819 50.4847C103.895 49.8543 103.931 49.2197 103.928 48.5847C103.979 46.1907 103.59 43.7967 103.717 41.3901C103.96 36.9567 103.079 32.5235 103.264 28.0901C103.338 27.7117 103.326 27.3219 103.23 26.9485C103.134 26.5751 102.956 26.2273 102.709 25.9305C102.249 25.4618 101.637 25.2211 101.35 24.5941C100.909 23.6378 100.214 21.5225 100.794 21.2628C101.643 21.1041 102.518 21.1475 103.347 21.3895C104.357 21.5122 105.36 21.6856 106.353 21.9088C108.266 22.486 110.141 23.1797 111.969 23.9861C113.245 24.5118 114.706 24.6195 115.976 25.1515C116.902 25.5505 116.474 26.8677 116.263 27.5961C115.97 28.5841 115.721 29.2871 115.089 29.3441C114.241 29.3225 113.409 29.1149 112.651 28.7361C112.216 28.5413 111.771 28.3701 111.318 28.2231L110.75 28.0647C109.473 27.7227 107.623 27.0577 108.337 29.0907C108.402 29.2575 108.453 29.4291 108.491 29.6037C108.52 29.7693 108.539 29.9363 108.548 30.1041V30.4397C108.548 30.6107 108.548 30.7881 108.58 30.9591C108.771 32.1913 108.863 33.4365 108.854 34.6831C108.871 35.5723 108.968 36.4581 109.142 37.3305C109.32 38.0335 110.552 37.5521 111.171 37.5711C112.205 37.5711 113.239 37.5711 114.272 37.5711C115.421 37.5711 115.836 37.9257 115.938 38.9835C116.008 39.6991 116.276 41.2255 115.74 41.8081C115.408 42.1691 113.685 41.9475 112.888 41.9285C111.937 41.8809 110.985 41.8809 110.035 41.9285C108.893 42.0107 108.522 42.7137 108.625 43.8285C108.663 44.2527 108.401 48.1351 108.357 49.2055C108.357 49.8387 108.293 50.4721 108.306 51.1055C108.306 51.6121 108.235 52.3721 108.944 52.0047C110.105 51.4347 111.496 51.4917 112.773 51.0675C113.258 50.8965 113.679 50.7951 114.081 50.6811C114.57 50.5553 115.05 50.3965 115.517 50.2061C115.836 50.0605 116.251 49.8135 116.538 50.1491C117.031 51.0205 117.19 52.0397 116.985 53.0181L116.965 52.9927Z" fill="#4F87C6"/>
<path d="M59.6072 31.5493C61.9174 31.8533 64.304 31.2581 67.0418 31.1693C71.9364 31.0047 76.844 30.9921 81.7196 31.0933C83.7552 31.1377 85.7464 31.0491 87.7374 30.9731C89.837 30.8907 91.5664 31.4733 93.6022 30.7071C97.029 29.4403 96.1548 25.7796 96.4036 23.0373C96.4674 22.404 97.278 21.321 98.3182 19.9593C99.1286 18.87 101.056 16.1593 100.801 15.2473C100.667 14.7723 98.9308 13.9173 98.0756 14.158C96.6206 14.5696 95.4592 19.4146 94.6168 19.0536C94.073 18.7192 93.6198 18.2584 93.2958 17.711C92.8006 16.8355 92.235 16.001 91.6046 15.2156C90.8962 14.1643 89.6902 13.3156 88.7712 12.3466C88.1012 11.6246 86.7674 12.3086 86.2952 12.866C85.2996 14.0376 86.8248 14.88 87.6162 15.6083C88.6678 16.6111 89.6072 17.7238 90.4176 18.927C91.2792 20.1936 93.0022 22.784 92.9704 23.5756C92.9066 25.083 93.1936 26.2737 92.4214 26.9577C90.0476 29.0731 81.4642 28.2243 79.2498 28.4397C71.7578 29.1681 65.2102 27.8633 57.7948 29.1301C57.0928 29.3137 57.1184 30.6753 57.5204 31.4163C57.7246 31.8091 58.969 31.4671 59.6072 31.5493Z" fill="white"/>
<path d="M73.0852 33.9486C72.4244 34.1124 71.8422 34.4998 71.4386 35.0442C71.0302 35.9056 71.4386 37.4382 71.4834 38.3692C71.6238 41.0254 71.6238 43.6868 71.4834 46.343C71.3876 48.4266 71.4834 50.4596 71.2536 52.537C71.2092 53.7528 71.025 54.9598 70.7048 56.1342C70.5292 56.5718 70.2494 56.9606 69.8894 57.2672C69.5294 57.5738 69.0998 57.7894 68.6374 57.8952C68.175 58.001 67.6936 57.9942 67.2346 57.875C66.7756 57.7558 66.3524 57.528 66.0016 57.211C64.221 55.425 64.5656 50.4342 64.5976 47.4512C64.5976 47.1092 64.5976 46.818 64.5976 46.5266C64.5976 45.8932 64.5976 45.26 64.5976 44.6266C64.6422 42.6506 64.5976 40.6746 64.5338 38.7176C64.5018 37.8752 64.2658 37.0582 64.1828 36.2222C64.1808 35.5664 63.956 34.9304 63.5446 34.4172C62.9894 33.9422 61.7896 33.9612 61.1068 34.0562C59.5498 34.278 59.0072 35.019 59.2626 36.52C59.5944 38.4474 59.8076 40.3934 59.9008 42.3466C59.9964 44.367 59.7794 46.4062 59.7412 48.4202C59.6902 51.0042 59.6264 53.9366 60.3156 56.6092C60.6282 57.8252 61.6302 60.7576 64.1956 61.7456C65.2404 62.164 66.3212 62.4884 67.4246 62.7146C67.5332 62.7146 68.3946 62.759 68.5032 62.7652C69.4922 62.8412 70.0348 62.5436 71.0112 62.474C71.8034 62.4814 72.5848 62.2896 73.2824 61.9164C73.9798 61.5432 74.5706 61.0008 74.9996 60.3396C75.6058 59.358 75.5612 58.18 75.6696 57.078C75.7782 55.976 75.7654 54.6966 75.7974 53.5186C75.8612 51.036 75.842 48.5532 75.9186 46.077C76.0016 43.4042 76.2186 40.7316 76.3462 38.078C76.4482 36.064 75.708 33.2646 73.0468 33.9486H73.0852Z" fill="white"/>
<path d="M55.1344 38.4321C55.1176 37.9471 55.0622 37.4643 54.9684 36.9881C54.8682 36.4655 54.8062 35.9363 54.7834 35.4047C54.742 33.6025 54.6078 31.8037 54.3814 30.0151C54.2368 28.4751 53.7034 26.9961 52.8306 25.7148C52.011 24.5723 50.93 23.6391 49.6764 22.9917C48.4228 22.3443 47.0324 22.0013 45.6194 21.9908C44.8664 21.974 44.1138 22.0334 43.373 22.1681C42.6455 22.3138 41.2735 22.7318 40.5204 22.8838C39.3526 23.1244 38.8803 23.4158 37.7125 23.6438C35.2683 24.1188 32.5689 25.0181 32.0137 27.6845C31.7138 29.1031 31.7967 32.5105 34.0622 32.1177C36.0086 31.7885 34.7642 30.5915 34.962 29.5845C35.4215 27.2031 38.1528 28.9067 37.904 30.9017C37.7274 32.5125 37.6592 34.1333 37.6997 35.7531C37.6997 36.1395 37.6997 36.5195 37.6997 36.9057C37.6997 39.3251 37.6998 42.1877 37.7572 45.1011C37.7572 45.5065 37.7955 45.9245 37.821 46.3297C37.8773 46.9319 37.8986 47.5365 37.8848 48.1411C37.8465 48.9327 37.9997 49.4077 37.3105 49.9145C36.8751 50.2113 36.3883 50.4259 35.8746 50.5477C35.4146 50.7333 35.0015 51.0173 34.6651 51.3797C34.3286 51.7421 34.077 52.1739 33.9282 52.6441C33.4432 54.0881 34.8216 54.2401 36.0788 54.7151L36.5702 54.8861C37.2403 55.1015 37.9167 55.2725 38.5868 55.4815C40.0865 55.9565 41.516 56.4315 43.0539 56.7987C44.3059 57.1691 45.5866 57.4361 46.8828 57.5967C48.5038 57.7107 49.5312 57.2231 50.8778 56.4441C53.6538 54.8417 55.096 51.6941 55.2364 48.6035C55.2364 48.1095 55.3066 47.5965 55.3576 47.0961C55.5556 45.0695 55.211 42.8717 55.179 40.8261C55.179 40.0535 55.1472 39.2555 55.1408 38.4701L55.1344 38.4321ZM50.029 45.6521C49.9844 46.3297 49.8822 46.9187 49.7866 47.6091C49.699 48.7231 49.4848 49.8235 49.1484 50.8897C48.5996 52.2387 47.2338 51.8017 46.1234 51.5547C45.128 51.3395 43.3411 51.3205 42.5498 50.6807C42.001 50.2375 42.32 49.6105 42.403 49.0025C42.6103 47.3983 42.668 45.7785 42.5753 44.1637C42.537 43.4165 42.4923 42.6375 42.486 41.8711C42.486 39.3377 42.4349 36.4497 42.537 33.6377C42.5318 32.4739 42.4251 31.3127 42.2179 30.1671C42.0783 29.5919 41.9971 29.0041 41.9754 28.4127C42.0207 28.1573 42.1559 27.9261 42.3569 27.7601C42.5579 27.5943 42.8117 27.5047 43.0731 27.5071C43.6771 27.3851 44.2892 27.3067 44.9046 27.2727C45.6566 27.3843 46.3678 27.6827 46.9722 28.1405C48.5612 29.2297 49.2696 31.2627 49.4356 33.0995C49.4994 33.7327 49.5568 34.4547 49.6716 35.1197C49.9922 36.9219 50.1482 38.7491 50.1376 40.5791C50.1376 42.2575 50.1376 43.9865 50.0482 45.6457L50.029 45.6521Z" fill="white"/>
<path d="M57.5271 15.6383C59.3075 14.7453 58.9947 18.0576 58.9565 18.8493C58.7685 21.2512 58.7173 23.6617 58.8033 26.0694C58.8799 27.2536 60.5391 26.7534 61.5665 26.6076C61.9941 26.5444 61.7261 24.4353 61.7771 23.3713C61.7771 22.9596 61.6751 21.4713 62.0963 21.1673C62.5175 20.8633 65.1659 20.9266 65.9253 20.9203C66.3529 20.9203 66.1485 21.75 66.1997 22.415C66.2825 23.5296 65.6509 26.0504 66.1997 26.4114C66.7485 26.7724 68.9247 26.6836 69.1863 26.2656C69.3585 25.9996 69.2245 25.493 69.2373 25.189C69.2693 24.6126 69.4097 23.726 69.4223 23.1496C69.4861 20.9836 69.5627 19.7106 69.5563 17.8423C69.5563 16.8543 69.4223 15.8726 69.4287 14.891C69.4287 14.3336 69.4287 13.8016 69.3777 13.2633C69.3267 12.725 69.6585 12.269 69.3777 11.8446C69.1863 11.5216 69.1543 11.604 68.7395 11.6483C68.3247 11.6926 68.1013 11.718 67.7567 11.7306C67.1887 11.7306 66.4103 11.6863 66.2443 12.2753C66.2259 12.5046 66.2431 12.7352 66.2953 12.9593C66.2971 13.5476 66.3313 14.1353 66.3975 14.72C66.4835 15.3835 66.5029 16.054 66.4549 16.7213C66.4039 17.836 66.2187 18.14 65.8551 18.197C65.1021 18.3236 62.7089 18.7226 62.0261 18.273C61.5921 17.9816 61.5921 16.8226 61.5793 16.373C61.5365 15.5741 61.4427 14.7787 61.2985 13.9916C61.1071 12.6806 59.5819 12.972 58.5289 13.1366C57.8619 13.2149 57.2169 13.423 56.6311 13.749C56.0453 14.0751 55.5299 14.5126 55.1147 15.0366C54.3809 15.9993 54.5341 18.5516 56.3911 18.0386C56.8633 17.9056 57.4759 17.2913 57.4121 16.772C57.3483 16.2526 56.6847 16.069 57.5271 15.6383Z" fill="white"/>
<path d="M74.3622 19.0717C74.2984 20.0154 74.6046 22.0231 74.4706 22.9604C74.2984 24.1321 73.775 23.7584 73.456 24.8224C73.379 25.2463 73.4142 25.6827 73.558 26.0891C73.6642 26.2441 73.8226 26.3565 74.0048 26.4057C74.3174 26.4501 75.7724 26.2727 76.117 26.2663C77.3104 26.2663 78.5038 26.1713 79.6972 26.0637C80.699 25.9751 81.7392 26.0131 82.7094 25.9181C83.2964 25.8611 85.1918 26.2473 85.262 25.3861C85.2382 24.8609 85.1762 24.3381 85.0768 23.8217C85.0068 23.1884 84.911 23.2264 84.2346 23.1884C83.483 23.1726 82.7314 23.2213 81.9882 23.3341C81.1842 23.4164 78.3954 23.6951 77.7572 23.4861C77.4828 23.1884 77.4956 21.4911 77.4318 20.8134C77.3806 20.2814 77.8784 20.2941 78.708 20.2371C79.9844 20.1421 81.3628 20.2371 82.671 20.2371C83.2582 20.2371 83.105 20.0534 83.1944 19.4517C83.2518 19.0591 83.3156 18.0837 83.073 18.0014C82.4248 17.8335 81.7584 17.7442 81.0884 17.7354C80.0162 17.6657 78.957 17.6784 77.8976 17.6087C77.2594 17.5644 77.1892 17.5011 77.2594 16.9057C77.3296 16.3104 77.0744 14.6891 77.0998 14.4231C77.1382 13.9417 79.0144 14.2584 80.5332 14.2711C81.114 14.2711 82.3328 14.5941 82.7476 14.1064C83.054 13.7391 82.8498 13.5617 82.9136 13.1121C82.9582 12.8271 83.0858 12.2571 82.8752 12.0481C82.5626 11.7504 80.3736 11.5351 79.7674 11.4717C78.368 11.2962 76.9596 11.2032 75.5492 11.1931C75.2556 11.1931 73.4304 11.2247 73.2582 11.6301C72.5306 13.3844 73.9792 13.8657 74.2218 14.6637C74.56 15.7847 74.4898 17.9634 74.4196 19.1351L74.3622 19.0717Z" fill="white"/>
<path d="M115.478 50.2137C115.011 50.4041 114.531 50.5629 114.043 50.6887C113.64 50.8027 113.219 50.9103 112.734 51.0751C111.503 51.4993 110.092 51.4423 108.905 52.0123C108.191 52.3607 108.267 51.6197 108.267 51.1131C108.267 50.4797 108.267 49.8463 108.318 49.2131C108.363 48.1427 108.625 44.2541 108.586 43.8361C108.478 42.7341 108.848 42.0311 109.997 41.9361C110.947 41.8885 111.899 41.8885 112.849 41.9361C113.64 41.9361 115.37 42.1767 115.702 41.8157C116.238 41.2331 115.976 39.7003 115.9 38.9911C115.791 37.9333 115.383 37.5723 114.234 37.5787C113.2 37.5787 112.166 37.5787 111.132 37.5787C110.494 37.5787 109.282 38.0411 109.103 37.3381C108.93 36.4657 108.833 35.5797 108.816 34.6907C108.824 33.4441 108.733 32.1989 108.542 30.9667C108.542 30.7893 108.542 30.6121 108.51 30.4473V30.1117C108.5 29.9439 108.481 29.7769 108.452 29.6113C108.415 29.4367 108.363 29.2653 108.299 29.0983C107.584 27.0653 109.448 27.7303 110.711 28.0723L111.279 28.2307C111.734 28.3749 112.179 28.5461 112.613 28.7437C113.372 29.1459 114.211 29.3751 115.07 29.4151C115.708 29.3581 115.951 28.6551 116.244 27.6671C116.461 26.9387 116.882 25.6151 115.957 25.2224C114.681 24.6777 113.251 24.5891 111.949 24.0571C110.12 23.2555 108.245 22.5618 106.334 21.9797C105.342 21.7504 104.339 21.577 103.328 21.4604C102.511 21.3274 101.605 21.0677 100.775 21.3337C100.194 21.5871 100.89 23.7087 101.33 24.6651C101.618 25.2984 102.237 25.5327 102.69 26.0013C103.277 26.6347 103.283 27.3377 103.245 28.1611C103.053 32.5943 103.934 37.0277 103.698 41.4611C103.57 43.8677 103.96 46.2617 103.908 48.6557C103.912 49.2907 103.876 49.9253 103.8 50.5557C103.634 51.7147 103.896 53.0193 103.13 54.0263C102.166 55.2931 100.016 59.0107 103.181 58.9157C103.783 58.8815 104.378 58.7665 104.949 58.5737C106.346 58.1177 107.718 57.6553 109.084 57.0853C109.841 56.7853 110.615 56.5273 111.401 56.3127C112.649 56.0243 113.841 55.5343 114.93 54.8623L115.293 54.6217C115.983 54.2697 116.556 53.7291 116.946 53.0637C117.158 52.0901 116.994 51.0731 116.487 50.2137C116.212 49.8591 115.804 50.1123 115.478 50.2517V50.2137Z" fill="white"/>
<path d="M97.425 39.2757C97.2622 38.9865 97.0458 38.7309 96.7868 38.5219C96.5572 38.3067 95.217 36.3179 94.8724 36.0519C93.1238 34.7853 91.4646 34.4497 89.3586 34.2723C87.8462 34.0983 86.3246 34.0159 84.8022 34.0253C83.4748 34.0823 81.739 33.7339 80.4946 34.2849C79.6586 34.6523 79.984 35.9949 80.3222 36.7297C80.5584 37.2489 81.5986 38.2433 81.822 38.6739C82.244 39.6307 82.4404 40.6705 82.3964 41.7139C82.2814 42.6007 82.2622 43.5127 82.2176 44.4057C82.1156 46.4197 82.09 48.4399 82.0964 50.4539C82.0964 50.4539 82.2112 55.5777 82.2304 55.8247C82.3576 56.4175 82.3898 57.0267 82.3262 57.6297C82.1858 58.1617 81.8156 58.2629 81.4136 58.6367C80.534 59.4663 80.0106 60.6005 79.9522 61.8033C79.901 62.7533 80.852 62.7533 81.7262 62.8989C82.6862 63.1319 83.686 63.1535 84.6554 62.9623C85.1914 62.8229 85.9764 62.7849 86.487 62.6519C86.7632 62.5781 87.0448 62.5251 87.3294 62.4937C88.915 62.2665 90.4748 61.8889 91.9878 61.3663C93.4422 60.9237 94.789 60.1885 95.9444 59.2067C98.4972 56.9837 99.6394 49.0163 99.2758 45.7103C99.0136 43.4823 98.3886 41.3111 97.425 39.2819V39.2757ZM93.4174 53.8423C92.9616 54.9881 92.1702 55.9719 91.1456 56.6669C90.2312 57.0799 89.2502 57.3287 88.2482 57.4017C88.0302 57.4115 87.8126 57.3747 87.61 57.2939C87.4906 57.2419 87.3862 57.1605 87.307 57.0575C87.2278 56.9545 87.1762 56.8331 87.157 56.7049C86.8556 54.0413 86.7384 51.3603 86.806 48.6807V48.0029C86.806 45.1149 86.806 42.3029 86.6784 39.3897C86.621 38.0787 89.231 39.0919 89.9712 39.1807C90.7132 39.1661 91.4342 39.4257 91.9942 39.9089C92.6042 40.5647 93.0232 41.3723 93.2068 42.2459C93.711 44.1459 94.3682 45.8623 94.4448 47.8257C94.5622 49.8803 94.211 51.9347 93.4174 53.8359V53.8423Z" fill="white"/>
<path d="M49.4223 33.0939C49.2565 31.2573 48.5481 29.2243 46.9591 28.1349C46.3547 27.6771 45.6433 27.3787 44.8914 27.2673C44.2862 27.3161 43.685 27.4051 43.0918 27.5333C42.8307 27.5321 42.5776 27.6223 42.3769 27.7879C42.1762 27.9535 42.0406 28.1839 41.9941 28.4389C42.0161 29.0301 42.0974 29.6179 42.2366 30.1933C42.4378 31.3397 42.5445 32.5003 42.5557 33.6639C42.4536 36.4823 42.4791 39.3639 42.5047 41.8973C42.5047 42.6635 42.5557 43.4425 42.594 44.1899C42.6867 45.8045 42.629 47.4243 42.4217 49.0285C42.3388 49.6619 42.0197 50.2635 42.5685 50.7069C43.3598 51.3403 45.1211 51.3403 46.1423 51.5809C47.2589 51.8279 48.6183 52.2649 49.1671 50.9159C49.5067 49.8505 49.7207 48.7495 49.8053 47.6353C49.9073 46.9703 50.0031 46.3685 50.0477 45.6783C50.1563 44.0063 50.1179 42.2835 50.1435 40.6115C50.1477 38.7819 49.9917 36.9551 49.6777 35.1523C49.5437 34.4493 49.4735 33.7589 49.4223 33.0939Z" fill="#4F87C6"/>
<path d="M93.2325 42.24C93.0449 41.3678 92.6262 40.5613 92.02 39.9031C91.46 39.4197 90.7391 39.16 89.9971 39.1746C89.2759 39.086 86.6467 38.079 86.7041 39.3836C86.8445 42.278 86.8381 45.0836 86.8317 47.997V48.6746C86.7643 51.3542 86.8814 54.0352 87.1826 56.699C87.2018 56.8272 87.2535 56.9484 87.3329 57.0514C87.4121 57.1544 87.5163 57.2358 87.6359 57.288C87.8383 57.3694 88.0559 57.406 88.274 57.3956C89.2764 57.3258 90.2579 57.0768 91.1713 56.661C92.1991 55.9608 92.9907 54.9701 93.4431 53.8173C94.2409 51.9146 94.5985 49.8586 94.4897 47.8006C94.3941 45.8562 93.7367 44.121 93.2325 42.24Z" fill="#4F87C6"/>
<path d="M118.516 24.2529H117.948V23.9235H119.48V24.2592H118.912V26.0008H118.516V24.2529Z" fill="white"/>
<path d="M121.439 25.9945V24.4175L120.967 25.9945H120.635L120.156 24.4175V25.9945H119.786V23.9235H120.31L120.763 25.4752L121.235 23.9235H121.79V26.0008H121.407L121.439 25.9945Z" fill="white"/>
</g>
</g>
</g>
<defs>
<clipPath id="clip0_358_1600">
<rect width="100" height="64" fill="white" transform="translate(25 6)"/>
</clipPath>
</defs>
</svg>
