<?xml version="1.0" encoding="utf-8"?>
<!-- Generator: Adobe Illustrator 24.3.0, SVG Export Plug-In . SVG Version: 6.00 Build 0)  -->
<svg version="1.1" id="katman_1" xmlns="http://www.w3.org/2000/svg" xmlns:xlink="http://www.w3.org/1999/xlink" x="0px" y="0px"
	 viewBox="0 0 150 50" style="enable-background:new 0 0 150 50;" xml:space="preserve">
<style type="text/css">
	.st0{fill:#69C4D0;}
	.st1{fill:#E83658;}
</style>
<g>
	<path class="st0" d="M9.5,22.2v-1.1C9.1,21,8.7,21,8.3,21C3.7,21,0,24.8,0,29.4c0,2.7,1.3,5.3,3.6,6.8l-0.1-0.1
		c-3.1-3.5-2.7-8.8,0.8-11.8C5.7,23,7.5,22.3,9.5,22.2z"/>
	<path class="st0" d="M9.7,34.4c2.1,0,3.8-1.6,3.8-3.7V12.5h3.3v0c-0.1-0.4-0.1-0.8-0.1-1.2h-4.5v18.2c-0.1,2.1-1.9,3.8-4,3.7
		c-0.6,0-1.1-0.2-1.6-0.4C7.3,33.8,8.5,34.4,9.7,34.4z M23,18.7v-1.1c-1.2,0-2.4-0.4-3.4-1C20.5,17.7,21.7,18.4,23,18.7L23,18.7z"/>
	<path class="st1" d="M19.6,16.6c-1-1.1-1.6-2.6-1.6-4.1h-1.2C17.1,14.2,18.1,15.7,19.6,16.6z M8.4,25.5c-2.1,0-3.8,1.7-3.9,3.9
		c0,1.4,0.8,2.7,2.1,3.4c-0.5-0.6-0.7-1.4-0.7-2.2c0-2.1,1.7-3.8,3.8-3.8c0.4,0,0.8,0.1,1.2,0.2v-4.6c-0.4-0.1-0.7-0.1-1.1-0.1H9.5
		v3.5C9.1,25.6,8.7,25.5,8.4,25.5z"/>
	<path class="st1" d="M23,18.6L23,18.6v3.5c-2.3,0-4.5-0.7-6.3-2v9.3c0,4.6-3.7,8.3-8.3,8.3c0,0,0,0,0,0l0,0c-1.7,0-3.4-0.5-4.8-1.5
		c3.1,3.4,8.4,3.6,11.8,0.4c1.7-1.6,2.7-3.8,2.7-6.1v-9.2c1.8,1.3,4.1,2,6.3,2v-4.6C24,18.8,23.5,18.7,23,18.6z"/>
	<path d="M16.7,29.4v-9.2c1.8,1.3,4.1,2.1,6.3,2v-3.5c-1.3-0.3-2.5-1-3.4-2c-1.5-0.9-2.5-2.4-2.8-4.1h-3.4v18.2
		c-0.1,2.1-1.9,3.7-4,3.6c-1.2-0.1-2.2-0.6-2.9-1.6c-1.9-1-2.6-3.3-1.6-5.2c0.7-1.2,1.9-2,3.3-2c0.4,0,0.8,0.1,1.1,0.2v-3.5
		c-4.6,0.1-8.3,3.9-8.2,8.6c0,2,0.8,4,2.2,5.5c3.8,2.7,9,1.7,11.6-2C16.2,32.8,16.7,31.1,16.7,29.4L16.7,29.4L16.7,29.4z"/>
	<path class="st0" d="M127.7,31.2c0-2.7,2.1-5,4.8-5.2c-0.2,0-0.3,0-0.5,0c-2.9,0.1-5.1,2.5-5,5.4c0.1,2.7,2.3,4.9,5,5l0,0h0.5
		C129.8,36.2,127.7,33.9,127.7,31.2L127.7,31.2z"/>
	<polygon points="93.2,23.6 102.7,23.6 101.9,26.3 99.4,26.3 99.4,36.4 96.3,36.4 96.3,26.3 93.2,26.3 93.2,23.6 	"/>
	<polygon points="118.3,23.6 128,23.6 127.2,26.3 124.5,26.3 124.5,36.4 121.4,36.4 121.4,26.3 118.3,26.3 118.3,23.6 	"/>
	<polygon points="103.3,27.7 106.4,27.7 106.4,36.4 103.3,36.4 103.3,27.7 	"/>
	<polygon points="107.6,23.6 110.6,23.6 110.6,29.5 113.6,26.6 117.3,26.6 113.5,30.3 117.7,36.4 114.4,36.4 111.5,32.1 110.6,33 
		110.6,36.4 107.6,36.4 107.6,23.6 107.6,23.6 	"/>
	<polygon points="139.8,23.6 142.9,23.6 142.9,29.5 145.9,26.6 149.5,26.6 145.7,30.3 150,36.4 146.6,36.4 143.8,32.1 142.9,33 
		142.9,36.4 139.8,36.4 139.8,23.6 139.8,23.6 	"/>
	<path d="M104.8,26.7c0.8,0.1,1.6-0.6,1.6-1.4c0.1-0.8-0.6-1.6-1.4-1.6c-0.1,0-0.1,0-0.2,0l0,0c-0.8-0.1-1.6,0.6-1.6,1.4
		c-0.1,0.8,0.6,1.6,1.4,1.6C104.7,26.7,104.8,26.7,104.8,26.7z"/>
	<path class="st1" d="M133.6,25.9h-0.5c2.9,0.2,5,2.7,4.8,5.6c-0.2,2.6-2.2,4.6-4.8,4.8h0.5c2.9,0.1,5.3-2.1,5.4-5s-2.1-5.3-5-5.4
		C133.9,25.9,133.8,25.9,133.6,25.9L133.6,25.9z"/>
	<path d="M132.8,25.9c-2.9-0.1-5.3,2.1-5.4,5c-0.1,2.9,2.1,5.3,5,5.4c0.1,0,0.3,0,0.4,0l0,0c2.9-0.1,5.1-2.5,5-5.4
		C137.8,28.2,135.6,26,132.8,25.9z M132.8,33.7c-1.4,0-2.5-1.1-2.5-2.5c0-1.4,1.1-2.5,2.5-2.5l0,0c1.4,0,2.5,1.1,2.5,2.5
		C135.4,32.6,134.2,33.7,132.8,33.7z"/>
	<path d="M38.6,26.1c-1.2-0.6-2.5-1-3.9-1.2c-1.7-0.4-2.8-0.8-3.2-1.1c-0.3-0.2-0.5-0.6-0.5-1c0-0.4,0.2-0.8,0.5-1
		c0.7-0.4,1.5-0.7,2.3-0.6c0.8-0.1,1.5,0.1,2.2,0.6c0.5,0.5,0.9,1.1,0.9,1.9v0.1l3.9-0.2v-0.1c0-1.5-0.7-3-1.8-4
		c-1.1-1-2.8-1.5-5.1-1.5c-1.2,0-2.4,0.2-3.5,0.6c-0.9,0.4-1.7,1-2.3,1.8c-1.3,2-0.9,4.7,0.9,6.2c1.2,0.9,2.6,1.5,4.1,1.8
		c1.5,0.4,2.4,0.6,2.8,0.8c0.5,0.1,0.9,0.4,1.2,0.7c0.2,0.3,0.3,0.6,0.3,1c0,0.6-0.3,1.2-0.8,1.6c-0.7,0.5-1.6,0.7-2.5,0.7
		c-0.9,0.1-1.8-0.2-2.5-0.7c-0.7-0.7-1.1-1.5-1.2-2.5v-0.1l-3.7,0.4v0.1c0.1,1.7,0.9,3.4,2.2,4.6c1.2,1,3,1.6,5.2,1.6
		c1.3,0,2.6-0.2,3.9-0.7c1-0.4,1.9-1.1,2.4-2c0.6-0.9,0.9-1.9,0.9-2.9c0-1-0.2-2-0.7-2.9C40.1,27.1,39.4,26.5,38.6,26.1z"/>
	<polygon points="53.2,25.1 46.5,25.1 46.5,18.2 42.7,18.2 42.7,36.1 46.5,36.1 46.5,28.4 53.2,28.4 53.2,36.1 57,36.1 57,18.2 
		53.2,18.2 	"/>
	<path d="M66.9,17.9c-1.3,0-2.6,0.2-3.8,0.7c-0.9,0.4-1.7,0.9-2.3,1.6c-0.7,0.7-1.3,1.5-1.7,2.4c-0.6,1.4-0.9,3-0.8,4.6
		c0,2.8,0.8,5.1,2.4,6.7c1.7,1.7,4,2.5,6.3,2.4c2.3,0.1,4.6-0.8,6.3-2.4c1.6-1.6,2.3-3.9,2.3-6.8s-0.8-5.2-2.4-6.8
		C71.6,18.7,69.3,17.8,66.9,17.9z M63.6,31.6c-0.9-1-1.4-2.5-1.4-4.4s0.4-3.5,1.3-4.4c0.9-1,2.1-1.5,3.4-1.5
		c1.3-0.1,2.5,0.5,3.4,1.4c0.9,1,1.3,2.4,1.3,4.4s-0.5,3.5-1.4,4.5c-1.7,1.9-4.6,2-6.5,0.3C63.7,31.8,63.6,31.7,63.6,31.6L63.6,31.6
		z"/>
	<path d="M89.4,20.3c-0.6-0.9-1.6-1.5-2.6-1.8c-1.4-0.2-2.8-0.3-4.2-0.3h-5.8v17.8h3.8v-6.6h2.2c1.2,0,2.5-0.1,3.7-0.3
		c0.7-0.2,1.3-0.4,1.9-0.9c0.6-0.5,1.2-1.1,1.5-1.8c0.4-0.9,0.6-1.8,0.6-2.8C90.5,22.5,90.2,21.3,89.4,20.3z M85.1,25.9
		c-0.9,0.2-1.8,0.3-2.7,0.3h-1.8v-4.7h1.6c0.8,0,1.7,0,2.5,0.1c0.5,0.1,1,0.3,1.4,0.7c0.4,0.4,0.5,0.9,0.5,1.5
		c0,0.5-0.1,0.9-0.4,1.3C86,25.5,85.6,25.8,85.1,25.9z"/>
</g>
</svg>
