<svg width="1024" height="354" viewBox="0 0 1024 354" fill="none" xmlns="http://www.w3.org/2000/svg">
<path d="M134.345 235.084V139.953H199.561V156.046H153.553V178.564H193.267V194.657H153.553V235.084H134.345ZM228.957 187.194L212.41 184.209C214.27 177.547 217.471 172.615 222.014 169.414C226.556 166.213 233.305 164.612 242.26 164.612C250.393 164.612 256.45 165.585 260.43 167.532C264.41 169.436 267.2 171.88 268.801 174.865C270.445 177.807 271.266 183.236 271.266 191.153L271.072 212.437C271.072 218.494 271.353 222.971 271.915 225.87C272.521 228.725 273.624 231.797 275.225 235.084H257.185C256.709 233.873 256.125 232.078 255.433 229.698C255.13 228.617 254.914 227.903 254.784 227.557C251.669 230.585 248.338 232.857 244.791 234.371C241.243 235.885 237.458 236.642 233.435 236.642C226.34 236.642 220.737 234.717 216.628 230.867C212.561 227.016 210.528 222.149 210.528 216.266C210.528 212.372 211.458 208.911 213.318 205.883C215.178 202.812 217.774 200.476 221.105 198.875C224.479 197.231 229.325 195.803 235.641 194.592C244.163 192.991 250.069 191.499 253.356 190.114V188.297C253.356 184.793 252.491 182.306 250.761 180.835C249.03 179.321 245.764 178.564 240.962 178.564C237.717 178.564 235.187 179.213 233.37 180.51C231.553 181.765 230.082 183.993 228.957 187.194ZM253.356 201.99C251.02 202.768 247.321 203.698 242.26 204.78C237.198 205.862 233.889 206.921 232.331 207.96C229.952 209.647 228.762 211.788 228.762 214.384C228.762 216.936 229.714 219.143 231.618 221.003C233.521 222.863 235.944 223.793 238.885 223.793C242.173 223.793 245.31 222.712 248.295 220.549C250.501 218.905 251.95 216.893 252.643 214.514C253.118 212.956 253.356 209.993 253.356 205.624V201.99ZM287.944 166.169H304.751V175.579C310.764 168.268 317.924 164.612 326.23 164.612C330.642 164.612 334.471 165.52 337.716 167.337C340.96 169.154 343.621 171.901 345.697 175.579C348.726 171.901 351.992 169.154 355.496 167.337C359 165.52 362.742 164.612 366.722 164.612C371.784 164.612 376.067 165.65 379.571 167.727C383.075 169.76 385.692 172.767 387.423 176.747C388.677 179.688 389.305 184.447 389.305 191.023V235.084H371.07V195.695C371.07 188.86 370.443 184.447 369.188 182.457C367.501 179.862 364.905 178.564 361.401 178.564C358.849 178.564 356.448 179.342 354.198 180.9C351.949 182.457 350.326 184.75 349.331 187.778C348.336 190.763 347.839 195.5 347.839 201.99V235.084H329.604V197.317C329.604 190.612 329.28 186.286 328.631 184.339C327.982 182.392 326.965 180.943 325.581 179.991C324.24 179.04 322.401 178.564 320.065 178.564C317.253 178.564 314.722 179.321 312.473 180.835C310.223 182.349 308.601 184.534 307.606 187.389C306.654 190.244 306.178 194.981 306.178 201.6V235.084H287.944V166.169ZM407.539 156.825V139.953H425.774V156.825H407.539ZM407.539 235.084V166.169H425.774V235.084H407.539ZM444.528 235.084V139.953H462.762V235.084H444.528ZM472.885 166.169H492.288L508.77 215.098L524.864 166.169H543.747L519.413 232.489L515.065 244.494C513.464 248.517 511.929 251.589 510.458 253.708C509.03 255.828 507.365 257.537 505.461 258.835C503.601 260.176 501.286 261.214 498.518 261.95C495.792 262.685 492.699 263.053 489.238 263.053C485.734 263.053 482.295 262.685 478.92 261.95L477.298 247.673C480.153 248.236 482.727 248.517 485.02 248.517C489.26 248.517 492.396 247.263 494.429 244.753C496.463 242.287 498.02 239.129 499.102 235.279L472.885 166.169ZM586.057 215.422L604.356 212.632C605.135 216.179 606.714 218.883 609.093 220.743C611.473 222.56 614.804 223.469 619.087 223.469C623.802 223.469 627.349 222.604 629.729 220.873C631.329 219.662 632.13 218.04 632.13 216.006C632.13 214.622 631.697 213.476 630.832 212.567C629.924 211.702 627.89 210.901 624.732 210.166C610.023 206.921 600.701 203.958 596.764 201.276C591.313 197.555 588.587 192.386 588.587 185.767C588.587 179.797 590.945 174.778 595.661 170.712C600.376 166.645 607.687 164.612 617.594 164.612C627.025 164.612 634.033 166.148 638.619 169.219C643.205 172.291 646.363 176.833 648.093 182.847L630.897 186.026C630.161 183.344 628.755 181.289 626.679 179.862C624.646 178.434 621.726 177.72 617.919 177.72C613.117 177.72 609.677 178.391 607.601 179.732C606.216 180.684 605.524 181.916 605.524 183.431C605.524 184.728 606.13 185.832 607.341 186.74C608.985 187.951 614.652 189.66 624.343 191.867C634.077 194.073 640.869 196.777 644.719 199.978C648.526 203.223 650.429 207.743 650.429 213.54C650.429 219.857 647.79 225.286 642.513 229.828C637.235 234.371 629.426 236.642 619.087 236.642C609.699 236.642 602.258 234.738 596.764 230.931C591.313 227.124 587.744 221.955 586.057 215.422ZM684.627 139.953V174.93C690.511 168.051 697.541 164.612 705.717 164.612C709.913 164.612 713.699 165.391 717.073 166.948C720.448 168.505 722.978 170.495 724.666 172.918C726.396 175.341 727.564 178.023 728.17 180.965C728.819 183.906 729.143 188.471 729.143 194.657V235.084H710.908V198.68C710.908 191.456 710.562 186.87 709.87 184.923C709.178 182.976 707.945 181.441 706.171 180.316C704.441 179.148 702.256 178.564 699.617 178.564C696.589 178.564 693.885 179.299 691.506 180.77C689.126 182.241 687.374 184.469 686.25 187.454C685.168 190.396 684.627 194.765 684.627 200.562V235.084H666.393V139.953H684.627ZM743.484 199.654C743.484 193.597 744.977 187.735 747.962 182.068C750.947 176.401 755.165 172.075 760.616 169.09C766.11 166.104 772.231 164.612 778.98 164.612C789.406 164.612 797.95 168.008 804.612 174.8C811.275 181.549 814.606 190.093 814.606 200.432C814.606 210.858 811.231 219.51 804.483 226.389C797.777 233.224 789.319 236.642 779.11 236.642C772.794 236.642 766.759 235.214 761.005 232.359C755.295 229.504 750.947 225.329 747.962 219.835C744.977 214.297 743.484 207.57 743.484 199.654ZM762.173 200.627C762.173 207.462 763.795 212.697 767.04 216.331C770.285 219.965 774.286 221.782 779.045 221.782C783.804 221.782 787.784 219.965 790.985 216.331C794.23 212.697 795.852 207.419 795.852 200.497C795.852 193.748 794.23 188.557 790.985 184.923C787.784 181.289 783.804 179.472 779.045 179.472C774.286 179.472 770.285 181.289 767.04 184.923C763.795 188.557 762.173 193.792 762.173 200.627ZM828.428 166.169H845.429V176.292C847.636 172.832 850.621 170.02 854.384 167.857C858.148 165.693 862.323 164.612 866.908 164.612C874.912 164.612 881.704 167.748 887.284 174.021C892.865 180.294 895.655 189.033 895.655 200.238C895.655 211.745 892.843 220.7 887.22 227.103C881.596 233.462 874.782 236.642 866.779 236.642C862.972 236.642 859.511 235.885 856.396 234.371C853.324 232.857 850.08 230.261 846.662 226.584V261.301H828.428V166.169ZM846.467 199.459C846.467 207.203 848.003 212.935 851.075 216.655C854.146 220.332 857.888 222.171 862.301 222.171C866.541 222.171 870.066 220.484 872.878 217.109C875.69 213.692 877.096 208.111 877.096 200.367C877.096 193.143 875.647 187.778 872.749 184.274C869.85 180.77 866.259 179.018 861.977 179.018C857.521 179.018 853.822 180.748 850.88 184.209C847.938 187.627 846.467 192.71 846.467 199.459Z" fill="white"/>
<path d="M932 49H94V107H932V49Z" fill="white"/>
<path d="M932 287H94V299H932V287Z" fill="white"/>
</svg>
