<svg width="843" height="255" viewBox="0 0 843 255" fill="none" xmlns="http://www.w3.org/2000/svg">
<g clip-path="url(#clip0_68_154)">
<path d="M101.349 225.644C71.4469 225.644 42.7046 225.772 13.9623 225.562C6.04402 225.502 -0.420176 220.336 0.340761 207.509C1.32772 190.828 1.82496 174.109 2.49549 157.406C3.64067 128.857 4.79337 100.293 5.90087 71.7364C6.33031 60.6332 6.67688 49.5225 7.00084 38.4118C7.10632 34.9407 7.01591 31.4695 7.01591 27.7659C25.3462 27.7659 43.0964 27.7659 60.4774 27.7659C58.9103 34.161 57.4035 40.6459 55.6707 47.071C55.3919 48.1131 54.1488 48.9227 53.2899 49.7849C49.8318 53.2411 49.5606 57.7243 52.5968 61.6078C55.5275 65.3489 60.2438 66.226 64.3574 63.8045C68.3504 61.4504 70.5504 56.0975 67.8607 52.5363C64.7416 48.3979 65.7512 44.5294 66.6025 40.3686C66.8286 39.2815 67.1525 38.2019 67.5368 37.1598C71.0325 27.616 71.0401 27.616 81.2035 27.601C99.6392 27.571 118.083 27.631 136.518 27.4436C139.773 27.4136 141.702 28.3582 142.689 31.4095C144.211 36.1252 146.019 40.7584 147.277 45.5415C147.639 46.9285 146.953 48.9827 146.056 50.2347C142.869 54.688 143.163 59.6886 147.149 62.9048C151.3 66.256 156.596 65.8437 159.889 61.9002C163.234 57.9043 162.692 52.7388 158.623 49.0052C157.945 48.383 157.207 47.5733 156.988 46.7261C155.384 40.4885 153.907 34.2209 152.355 27.8184C169.54 27.8184 187.245 27.8184 205.749 27.8184C205.749 31.9193 205.628 36.0052 205.771 40.0762C206.751 69.1499 207.753 98.2311 208.8 127.305C209.395 143.896 210.058 160.487 210.744 177.071C211.218 188.534 211.896 199.989 212.258 211.452C212.514 219.437 207.074 225.674 197.89 225.659C179.184 225.629 160.477 225.652 141.77 225.652C139.185 225.652 136.601 225.652 134.017 225.652C141.167 222.241 147.405 217.847 152.551 211.955C162.616 200.424 167.332 186.779 169.05 171.808C170.693 157.511 174.407 143.761 180.856 130.784C181.655 129.179 182.295 126.6 181.542 125.371C180.796 124.156 178.091 123.369 176.403 123.594C157.719 126.03 140.436 132.103 125.481 143.873C121.164 147.27 121.096 147.33 123.771 151.805C129.602 161.582 133.068 172.1 134.145 183.413C134.22 184.178 134.567 184.913 134.981 186.337C137.332 181.291 138.989 176.711 141.491 172.647C143.962 168.629 147.292 165.135 150.69 160.862C151.164 162.324 151.353 162.669 151.285 162.721C140.315 172.13 136.337 185.025 133.264 198.377C131.116 207.704 127.44 216.378 121.315 223.823C120.275 225.09 118.12 225.449 116.101 225.464C118.655 221.671 121.563 218.072 123.695 214.054C135.772 191.285 131.365 169.828 118.06 149.196C111.114 138.423 101.726 130.049 91.5402 122.409C76.8111 111.366 63.8828 98.5535 53.742 83.117C53.3276 82.4872 52.8906 81.88 52.431 81.2877C49.0332 76.8494 45.3641 77.1193 43.0512 82.2323C37.6493 94.1752 33.6788 106.628 32.4809 119.68C31.6145 129.187 30.8762 138.888 31.7803 148.342C33.9576 171.208 44.4902 190.026 62.4287 204.54C73.4058 213.424 85.7314 219.999 99.142 224.535C99.5714 224.692 99.9707 224.955 101.349 225.644Z" fill="white"/>
<path d="M57.9833 51.43C59.6031 31.7501 67.446 15.5564 85.2263 5.54779C105.621 -5.93027 131.304 0.974558 144.61 20.8943C151.172 30.7155 154.268 41.5788 155.089 53.1918C155.21 54.8787 155.541 57.0153 152.882 57.0903C150.057 57.1653 150.366 54.9761 150.253 53.1019C149.145 34.3441 141.664 19.0501 124.855 9.56623C108.823 0.524731 88.6016 4.51319 75.9218 18.8626C67.3405 28.5789 62.8427 39.937 62.4886 52.8994C62.4359 54.6987 62.9407 57.0453 60.0928 57.0753C57.034 57.1128 58.0436 54.5788 57.8251 52.8994C57.7723 52.4346 57.9305 51.9248 57.9833 51.43Z" fill="white"/>
<path d="M62.5938 135.952C64.9444 155.25 78.4228 167.688 90.206 181.167C98.3277 190.456 105.688 200.173 108.28 212.588C108.883 215.459 109.116 218.398 108.808 221.412C107.971 217.333 107.421 213.165 106.238 209.184C102.524 196.739 94.0936 187.255 85.678 177.831C78.1817 169.434 70.3312 161.278 65.7355 150.834C63.7239 146.261 62.6164 141.298 61.1021 136.515C61.5993 136.32 62.0965 136.132 62.5938 135.952Z" fill="white"/>
</g>
<path d="M328.754 113.561C328.209 111.668 327.444 109.995 326.459 108.543C325.473 107.065 324.267 105.82 322.841 104.808C321.44 103.771 319.832 102.98 318.017 102.435C316.227 101.891 314.243 101.619 312.065 101.619C307.993 101.619 304.414 102.63 301.328 104.653C298.267 106.676 295.881 109.619 294.17 113.484C292.458 117.322 291.602 122.016 291.602 127.566C291.602 133.116 292.445 137.836 294.131 141.727C295.817 145.617 298.203 148.586 301.289 150.635C304.375 152.658 308.019 153.67 312.22 153.67C316.033 153.67 319.288 152.995 321.985 151.647C324.708 150.272 326.783 148.34 328.209 145.85C329.662 143.361 330.388 140.417 330.388 137.02L333.811 137.525H313.271V124.843H346.61V134.88C346.61 141.882 345.132 147.899 342.175 152.931C339.219 157.936 335.147 161.8 329.96 164.523C324.773 167.221 318.834 168.569 312.143 168.569C304.673 168.569 298.112 166.922 292.458 163.629C286.804 160.309 282.395 155.602 279.231 149.507C276.093 143.387 274.524 136.125 274.524 127.722C274.524 121.264 275.458 115.507 277.325 110.449C279.218 105.366 281.864 101.061 285.261 97.5338C288.659 94.0066 292.614 91.3224 297.126 89.481C301.639 87.6396 306.528 86.719 311.792 86.719C316.305 86.719 320.507 87.3803 324.397 88.703C328.287 89.9997 331.736 91.8411 334.745 94.2271C337.779 96.6131 340.256 99.4529 342.175 102.747C344.094 106.014 345.326 109.619 345.871 113.561H328.754ZM358.952 167.48V107.726H375.018V118.152H375.641C376.73 114.443 378.558 111.642 381.126 109.749C383.693 107.83 386.65 106.87 389.996 106.87C390.826 106.87 391.72 106.922 392.68 107.026C393.64 107.13 394.482 107.272 395.209 107.454V122.159C394.431 121.925 393.354 121.718 391.98 121.536C390.605 121.355 389.347 121.264 388.206 121.264C385.768 121.264 383.59 121.796 381.671 122.859C379.777 123.897 378.273 125.349 377.158 127.216C376.069 129.083 375.524 131.236 375.524 133.674V167.48H358.952ZM428.227 168.647C422.08 168.647 416.79 167.402 412.355 164.912C407.946 162.397 404.548 158.844 402.162 154.253C399.776 149.637 398.583 144.178 398.583 137.875C398.583 131.729 399.776 126.334 402.162 121.692C404.548 117.05 407.907 113.432 412.238 110.838C416.595 108.245 421.704 106.948 427.565 106.948C431.508 106.948 435.177 107.584 438.575 108.854C441.998 110.099 444.981 111.979 447.522 114.495C450.09 117.011 452.087 120.175 453.513 123.987C454.94 127.774 455.653 132.209 455.653 137.292V141.843H405.197V131.573H440.053C440.053 129.187 439.534 127.074 438.497 125.232C437.46 123.391 436.02 121.951 434.179 120.914C432.363 119.851 430.25 119.319 427.838 119.319C425.322 119.319 423.092 119.903 421.147 121.07C419.227 122.211 417.723 123.754 416.634 125.699C415.545 127.618 414.987 129.758 414.961 132.118V141.882C414.961 144.839 415.506 147.393 416.595 149.546C417.71 151.699 419.279 153.358 421.302 154.526C423.325 155.693 425.724 156.276 428.499 156.276C430.341 156.276 432.026 156.017 433.556 155.498C435.087 154.979 436.396 154.201 437.486 153.164C438.575 152.127 439.405 150.856 439.975 149.352L455.303 150.363C454.525 154.046 452.93 157.262 450.518 160.011C448.132 162.734 445.046 164.861 441.259 166.391C437.499 167.895 433.154 168.647 428.227 168.647ZM493.699 168.647C487.553 168.647 482.262 167.402 477.827 164.912C473.418 162.397 470.021 158.844 467.635 154.253C465.249 149.637 464.056 144.178 464.056 137.875C464.056 131.729 465.249 126.334 467.635 121.692C470.021 117.05 473.379 113.432 477.71 110.838C482.068 108.245 487.177 106.948 493.038 106.948C496.98 106.948 500.65 107.584 504.047 108.854C507.471 110.099 510.453 111.979 512.995 114.495C515.562 117.011 517.559 120.175 518.986 123.987C520.412 127.774 521.125 132.209 521.125 137.292V141.843H470.669V131.573H505.526C505.526 129.187 505.007 127.074 503.969 125.232C502.932 123.391 501.493 121.951 499.651 120.914C497.836 119.851 495.722 119.319 493.31 119.319C490.795 119.319 488.564 119.903 486.619 121.07C484.7 122.211 483.196 123.754 482.106 125.699C481.017 127.618 480.46 129.758 480.434 132.118V141.882C480.434 144.839 480.978 147.393 482.068 149.546C483.183 151.699 484.752 153.358 486.775 154.526C488.798 155.693 491.197 156.276 493.972 156.276C495.813 156.276 497.499 156.017 499.029 155.498C500.559 154.979 501.869 154.201 502.958 153.164C504.047 152.127 504.877 150.856 505.448 149.352L520.775 150.363C519.997 154.046 518.402 157.262 515.99 160.011C513.604 162.734 510.518 164.861 506.732 166.391C502.971 167.895 498.627 168.647 493.699 168.647ZM548.513 132.935V167.48H531.94V107.726H547.734V118.269H548.435C549.757 114.793 551.975 112.044 555.087 110.021C558.199 107.973 561.973 106.948 566.408 106.948C570.557 106.948 574.175 107.856 577.261 109.671C580.348 111.487 582.746 114.08 584.458 117.452C586.17 120.797 587.026 124.791 587.026 129.434V167.48H570.453V132.39C570.479 128.733 569.546 125.881 567.652 123.832C565.759 121.757 563.153 120.72 559.833 120.72C557.603 120.72 555.632 121.199 553.92 122.159C552.234 123.118 550.911 124.519 549.952 126.36C549.018 128.176 548.538 130.367 548.513 132.935ZM625.753 87.8082H646.527L668.468 141.338H669.401L691.342 87.8082H712.116V167.48H695.777V115.623H695.116L674.497 167.091H663.371L642.753 115.429H642.092V167.48H625.753V87.8082ZM742.722 168.608C738.91 168.608 735.512 167.947 732.53 166.624C729.547 165.276 727.187 163.292 725.45 160.672C723.738 158.027 722.882 154.733 722.882 150.791C722.882 147.471 723.491 144.683 724.71 142.427C725.929 140.171 727.589 138.355 729.69 136.981C731.791 135.606 734.177 134.569 736.848 133.868C739.545 133.168 742.372 132.675 745.329 132.39C748.804 132.027 751.605 131.69 753.731 131.379C755.858 131.042 757.401 130.549 758.361 129.9C759.32 129.252 759.8 128.292 759.8 127.022V126.788C759.8 124.324 759.022 122.418 757.466 121.07C755.936 119.721 753.757 119.047 750.931 119.047C747.948 119.047 745.575 119.708 743.811 121.031C742.048 122.327 740.881 123.961 740.31 125.932L724.983 124.688C725.761 121.057 727.291 117.919 729.573 115.273C731.855 112.602 734.799 110.553 738.404 109.127C742.035 107.674 746.236 106.948 751.008 106.948C754.328 106.948 757.505 107.337 760.539 108.115C763.6 108.893 766.31 110.099 768.67 111.733C771.056 113.367 772.936 115.468 774.311 118.035C775.685 120.577 776.373 123.624 776.373 127.177V167.48H760.656V159.194H760.189C759.23 161.061 757.946 162.708 756.338 164.134C754.73 165.535 752.798 166.637 750.542 167.441C748.285 168.219 745.679 168.608 742.722 168.608ZM747.468 157.171C749.906 157.171 752.059 156.691 753.926 155.732C755.793 154.746 757.259 153.423 758.322 151.763C759.385 150.104 759.917 148.223 759.917 146.123V139.782C759.398 140.119 758.685 140.43 757.777 140.715C756.896 140.975 755.897 141.221 754.782 141.454C753.667 141.662 752.551 141.856 751.436 142.038C750.321 142.194 749.31 142.336 748.402 142.466C746.457 142.751 744.758 143.205 743.306 143.827C741.853 144.45 740.725 145.293 739.921 146.356C739.117 147.393 738.715 148.69 738.715 150.246C738.715 152.503 739.532 154.227 741.166 155.42C742.826 156.587 744.927 157.171 747.468 157.171ZM805.802 87.8082V167.48H789.23V87.8082H805.802ZM835.65 87.8082V167.48H819.077V87.8082H835.65Z" fill="white"/>
<defs>
<clipPath id="clip0_68_154">
<rect width="212" height="226" fill="white" transform="translate(0.279785)"/>
</clipPath>
</defs>
</svg>
