<svg width="144" height="144" viewBox="0 0 144 144" fill="none" xmlns="http://www.w3.org/2000/svg">
<rect width="144" height="144" rx="31" />
<path fill-rule="evenodd" clip-rule="evenodd" d="M48.6649 69.8734C48.6649 69.8734 48.0495 87.0136 63.82 89.9014C68.9976 90.5191 83.0512 91.7381 93.0476 77.4516C96.793 70.956 104.538 60.8673 94.6713 47.1389C92.5063 45.1231 73.3729 31.6179 55.0154 52.6964L54.2097 53.6345H63.82C63.82 53.6345 65.985 53.2101 65.985 56.8823V66.0843C65.985 66.0843 65.6673 67.1669 68.15 67.1669H82.7638L86.5526 60.1301C86.5526 60.1301 87.4824 59.5888 86.0113 59.5888H70.8562C70.8562 59.5888 72.3458 54.1758 75.7275 54.1758H91.9651C91.9651 54.1758 94.7222 55.1063 93.5888 57.4236C92.4554 59.7409 87.0938 70.956 87.0938 70.956L86.0113 72.5799H61.655C61.655 72.5799 60.0312 72.2503 60.0312 69.8734V59.5888H45.4174C45.4174 59.5888 51.3659 43.5056 62.473 38.4904C69.5796 34.9974 82.7638 32.0808 95.7538 39.5608C99.952 41.9782 108.104 49.473 105.496 66.0843C104.341 71.2943 101.185 82.9219 78.4338 99.1035C76.4246 100.395 64.9025 109.388 64.9025 109.388L54.6187 96.158C54.6187 96.158 45.0093 82.9891 43.7936 75.8277C43.5918 72.6995 43.2524 69.8734 43.2524 69.8734H40.0049L48.6649 62.8366L52.9949 69.8734H48.6649Z" />
<path fill-rule="evenodd" clip-rule="evenodd" d="M81.1658 75.0772C82.8383 75.8605 83.1858 78.3045 81.942 80.5357C80.6982 82.7669 77.8826 83.8571 76.2117 83.0733C74.5409 82.2895 74.1923 79.8461 75.4356 77.6148C76.6789 75.3836 79.4939 74.2934 81.1658 75.0772Z" />
<path d="M65.4005 83.0082C67.5725 83.0082 69.3332 81.2473 69.3332 79.0752C69.3332 76.903 67.5725 75.1421 65.4005 75.1421C63.2285 75.1421 61.4678 76.903 61.4678 79.0752C61.4678 81.2473 63.2285 83.0082 65.4005 83.0082Z" />
</svg>
