<svg id="图层_1" data-name="图层 1" xmlns="http://www.w3.org/2000/svg" viewBox="0 0 168.82 24"><defs><style>.cls-1,.cls-4{fill:#fff;}.cls-2{fill:#69c4d0;}.cls-3{fill:#e83658;}.cls-4{font-size:13.99px;font-family:FZH4FW--GB1-0, FZCuHei-B03T;}</style></defs><circle class="cls-1" cx="12" cy="12" r="12"/><path d="M15.45,14.49V9.21a5.84,5.84,0,0,0,3.61,1.15v-2A3.72,3.72,0,0,1,17.11,7.2,3.43,3.43,0,0,1,15.5,4.85H13.55V15.29a2.18,2.18,0,0,1-2.29,2.07,2.15,2.15,0,0,1-1.67-.92,2.19,2.19,0,0,1,1-4.13,2,2,0,0,1,.63.12v-2a4.82,4.82,0,0,0-4.71,4.93,4.66,4.66,0,0,0,1.27,3.16,4.77,4.77,0,0,0,6.65-1.15,4.41,4.41,0,0,0,1-2.87Z" transform="translate(-0.86 -0.02)"/><path class="cls-2" d="M11.31,10.36V9.73a2.61,2.61,0,0,0-.68-.06,4.81,4.81,0,0,0-4.77,4.82,4.64,4.64,0,0,0,2.07,3.9l-.06-.05a4.75,4.75,0,0,1,.46-6.77A4.64,4.64,0,0,1,11.31,10.36Z" transform="translate(-0.86 -0.02)"/><path class="cls-3" d="M17.11,7.15a3.58,3.58,0,0,1-.92-2.36H15.5A3.47,3.47,0,0,0,17.11,7.15Zm-6.43,5.1a2.27,2.27,0,0,0-2.23,2.24,2.22,2.22,0,0,0,1.2,2,1.92,1.92,0,0,1-.4-1.26A2.17,2.17,0,0,1,11.43,13a3.3,3.3,0,0,1,.69.11V10.47a2.68,2.68,0,0,0-.63-.05h-.18v2A1.42,1.42,0,0,0,10.68,12.25Z" transform="translate(-0.86 -0.02)"/><path class="cls-2" d="M11.43,17.36a2.13,2.13,0,0,0,2.18-2.12V4.79H15.5a3.07,3.07,0,0,1-.05-.68H12.86V14.55a2.22,2.22,0,0,1-2.29,2.12,2.31,2.31,0,0,1-.92-.23A2.19,2.19,0,0,0,11.43,17.36Zm7.63-9V7.72a3.89,3.89,0,0,1-1.95-.57,3.51,3.51,0,0,0,1.95,1.2Z" transform="translate(-0.86 -0.02)"/><path class="cls-3" d="M19.06,8.29h0v2a6.17,6.17,0,0,1-3.61-1.14v5.33a4.75,4.75,0,0,1-4.77,4.76h0a4.69,4.69,0,0,1-2.75-.86,4.74,4.74,0,0,0,6.77.23,4.81,4.81,0,0,0,1.55-3.5V9.84A6.25,6.25,0,0,0,19.86,11V8.35A1.88,1.88,0,0,1,19.06,8.29Z" transform="translate(-0.86 -0.02)"/><polygon class="cls-1" points="79.82 5.19 83.12 5.19 83.12 11.47 86.32 8.38 90.15 8.38 86.1 12.32 90.68 18.81 87.06 18.81 84.08 14.23 83.12 15.19 83.12 18.81 79.82 18.81 79.82 5.19"/><polygon class="cls-1" points="30.22 5.19 40.34 5.19 39.48 8.06 36.82 8.06 36.82 18.81 33.52 18.81 33.52 8.06 30.22 8.06 30.22 5.19"/><polygon class="cls-1" points="56.94 5.19 67.26 5.19 66.41 8.06 63.54 8.06 63.54 18.81 60.24 18.81 60.24 8.06 56.94 8.06 56.94 5.19"/><polygon class="cls-1" points="40.97 9.55 44.27 9.55 44.27 18.81 40.97 18.81 40.97 9.55"/><polygon class="cls-1" points="45.55 5.19 48.74 5.19 48.74 11.47 51.94 8.38 55.88 8.38 51.83 12.32 56.3 18.81 52.79 18.81 49.7 14.23 48.74 15.19 48.74 18.81 45.55 18.81 45.55 5.19"/><path class="cls-1" d="M43.43,8.51a1.6,1.6,0,0,0,.22-3.2h-.22a1.6,1.6,0,0,0-.21,3.2Z" transform="translate(-0.86 -0.02)"/><path class="cls-3" d="M74.09,6.48h-.53a5.55,5.55,0,0,1,0,11.07h.53a5.54,5.54,0,1,0,.42-11.07Z" transform="translate(-0.86 -0.02)"/><path class="cls-1" d="M73.24,6.49a5.53,5.53,0,1,0-.43,11.06h.43a5.5,5.5,0,0,0,5.32-5.74A5.4,5.4,0,0,0,73.24,6.49Zm0,8.3a2.66,2.66,0,1,1,0-5.32h0a2.63,2.63,0,0,1,2.66,2.66A2.57,2.57,0,0,1,73.24,14.79Z" transform="translate(-0.86 -0.02)"/><path class="cls-2" d="M67.81,12a5.56,5.56,0,0,1,5.11-5.54h-.54a5.54,5.54,0,0,0,0,11.07h.54A5.56,5.56,0,0,1,67.81,12Z" transform="translate(-0.86 -0.02)"/><rect class="cls-1" x="93.88" y="11.36" width="4.34" height="1.29"/><text class="cls-4" transform="translate(95.87 16.26)"><tspan xml:space="preserve"> Wholesale</tspan></text></svg>