<svg id="Layer_1" data-name="Layer 1" xmlns="http://www.w3.org/2000/svg" viewBox="0 0 440 100"><defs><style>.cls-1{fill:#fe4806;}.cls-2{fill:#fff;}.cls-3{fill:#040000;}</style></defs><path class="cls-1" d="M24.35,0H75.51C81.29.21,87.44,1.1,92,5a21.67,21.67,0,0,1,7.92,17q.08,28,0,56.06a21.67,21.67,0,0,1-8.45,17.47C87,99,81.16,99.78,75.65,100H24.47c-6.69-.13-13.86-1.79-18.42-7C1.25,88.08.38,81,0,74.49V26.4C.3,19.62,1,12.16,6.07,7.07,10.62,1.86,17.7.17,24.35,0ZM24,24.91C22,34,28.55,43.65,37.57,45.63,44,47.43,51,44.6,55.44,39.8a16.07,16.07,0,0,0,8.1,5.67c8.12,2.76,17.73-3.06,19.35-11.42,1.85-7.1-2.43-15-9.22-17.65-5.44-2.43-11.89-.91-16.31,2.88A18.26,18.26,0,0,0,41,10.19,18.07,18.07,0,0,0,24,24.91ZM37.69,58.47c-4-2-7.92-4.18-12-6-3.76-1.86-8.77,1.3-8.77,5.46-.07,6.38,0,12.77,0,19.15-.41,4.31,4.63,8.09,8.6,6.22s8.07-4.05,12.13-6c2.12,5,6.85,9,12.44,9.16,6.64.07,13.29,0,19.93,0S82.93,80.8,83.25,74c0-4.69.38-9.44-.24-14.11a13.24,13.24,0,0,0-13-10.6c-6.73,0-13.45-.06-20.17,0C44.36,49.35,39.59,53.44,37.69,58.47Z"/><path class="cls-1" d="M39.47,17.56C46.19,15.91,53.26,22.12,52.4,29c-.26,6.92-8.27,12-14.63,9.16C31.73,36,28.83,28,32.45,22.6A11,11,0,0,1,39.47,17.56Z"/><path class="cls-1" d="M64.25,23.26C69.9,20.12,77.37,25.76,76,32c-.76,5.86-8.56,9.1-13.12,5.19C57.94,33.85,58.85,25.67,64.25,23.26Z"/><path class="cls-1" d="M49.19,56.2c6.58-.61,13.24-.11,19.85-.27,3.49-.16,7.24,2.42,7.37,6.09s0,7.32,0,11A6.53,6.53,0,0,1,70,79.51c-6.31,0-12.62,0-18.93,0-3.58.35-7.18-2.85-6.94-6.51,0-3.69,0-7.38,0-11.07A6.51,6.51,0,0,1,49.19,56.2Z"/><path class="cls-1" d="M23.62,67c.31-2.17-1.24-6.83,2.22-6.79,3.89,1.7,7.59,3.8,11.39,5.69,0,1.33,0,2.66,0,4-4.08,1.84-7.86,4.41-12.11,5.83C22.27,73.87,24.15,69.81,23.62,67Z"/><path class="cls-2" d="M24,24.91A18.07,18.07,0,0,1,41,10.19a18.26,18.26,0,0,1,16.41,9.09C61.78,15.49,68.23,14,73.67,16.4,80.46,19,84.74,27,82.89,34.05c-1.62,8.36-11.23,14.18-19.35,11.42a16.07,16.07,0,0,1-8.1-5.67C51,44.6,44,47.43,37.57,45.63,28.55,43.65,22,34,24,24.91Zm15.45-7.35a11,11,0,0,0-7,5C28.83,28,31.73,36,37.77,38.18,44.13,41,52.14,35.94,52.4,29,53.26,22.12,46.19,15.91,39.47,17.56Zm24.78,5.7c-5.4,2.41-6.31,10.59-1.36,14C67.45,41.13,75.25,37.89,76,32,77.37,25.76,69.9,20.12,64.25,23.26Z"/><path class="cls-2" d="M37.69,58.47c1.9-5,6.67-9.12,12.2-9.15,6.72-.08,13.44,0,20.17,0A13.24,13.24,0,0,1,83,59.9c.62,4.67.26,9.42.24,14.11C82.93,80.8,76.74,86.41,70,86.43s-13.29,0-19.93,0c-5.59-.16-10.32-4.15-12.44-9.16-4.06,2-8,4.17-12.13,6s-9-1.91-8.6-6.22c0-6.38-.05-12.77,0-19.15,0-4.16,5-7.32,8.77-5.46C29.77,54.29,33.68,56.49,37.69,58.47Zm11.5-2.27A6.51,6.51,0,0,0,44.11,62c-.06,3.69,0,7.38,0,11.07-.24,3.66,3.36,6.86,6.94,6.51,6.31,0,12.62,0,18.93,0A6.53,6.53,0,0,0,76.44,73c0-3.66.07-7.32,0-11S72.53,55.77,69,55.93C62.43,56.09,55.77,55.59,49.19,56.2ZM23.62,67c.53,2.81-1.35,6.87,1.45,8.72,4.25-1.42,8-4,12.11-5.83,0-1.33,0-2.66,0-4-3.8-1.89-7.5-4-11.39-5.69C22.38,60.17,23.93,64.83,23.62,67Z"/><path class="cls-3" d="M131.75,32c2.92,0,5.84,0,8.76,0,0,6.3,0,12.6,0,18.91C145.36,44.63,150.1,38.25,155,32c3.19,0,6.37,0,9.56,0-4.59,5.55-8.85,11.36-13.33,17,5.2,8.74,10.4,17.48,15.52,26.26q-4.75,0-9.53,0c-3.66-6.47-7.4-12.9-11.09-19.36-1.9,2.39-3.77,4.78-5.63,7.2-.05,4.08.13,8.17-.11,12.25-2.88-.07-5.76-.08-8.64,0Z"/><path class="cls-3" d="M166.53,32c2.9,0,5.8,0,8.71-.07,2.15,11.62,3.86,23.32,5.55,35,2.6-11.66,5.05-23.37,8-34.95h7.32c2.72,11.64,5.71,23.22,7.74,35a17.57,17.57,0,0,0,1-4.93c1.24-10,3.12-20,4.55-30,2.76-.1,5.52-.14,8.29-.08-2.67,14.41-5.3,28.84-8,43.25-3.57,0-7.13,0-10.68,0-2.32-10.44-5-20.83-6.75-31.38-2.3,10.48-4.35,21-6.93,31.46-3.47-.11-6.95-.07-10.42-.06Q170.72,53.63,166.53,32Z"/><path class="cls-3" d="M232,32h10.12c4.55,14.44,9.28,28.82,13.8,43.27-3,0-6,0-8.93,0-1.11-3.65-2-7.35-3.09-11-4.63,0-9.26,0-13.89,0-1.11,3.66-2,7.36-3.08,11-2.9,0-5.81,0-8.71,0C222.83,60.84,227.47,46.43,232,32Zm4.69,6.86c-1.53,6.24-3.17,12.45-4.86,18.64,3.41-.07,6.84.17,10.25-.16C240,51.27,239.2,44.74,236.73,38.86Z"/><path class="cls-3" d="M260.75,32q4.39-.06,8.8.06c-.22,14.42.2,28.85-.21,43.27-2.87-.1-5.73-.12-8.59-.09Z"/><path class="cls-3" d="M292.75,32c3.11,0,6.23,0,9.35-.08,2.77,6.6,5,13.43,7.47,20.15,1.11,2.69,1.4,5.75,3.08,8.18,2.77-9.53,6.47-18.75,9.6-28.16,3.24-.15,6.5-.12,9.75-.09q0,21.62,0,43.24h-8c-.09-10.77-.16-21.54.92-32.26q-5,14.11-10.18,28.21c-1.64,0-3.27.07-4.9.12-3.76-9.42-6.91-19.09-10.53-28.56,1.49,10.79,1.36,21.72,1,32.58-2.53-.09-5.06-.11-7.59-.09Z"/><path class="cls-3" d="M351.05,32h10.1c4.53,14.45,9.36,28.81,13.76,43.29-3,0-5.93-.06-8.9,0-1.08-3.66-2-7.35-3.08-11-4.62,0-9.24,0-13.85,0-1.14,3.63-2.06,7.33-3.07,11-2.91,0-5.83.08-8.74.06C341.83,60.83,346.47,46.42,351.05,32Zm4.67,6.88c-1.52,6.22-3.15,12.41-4.84,18.59q5.1.08,10.2,0C359.11,51.33,358.2,44.77,355.72,38.88Z"/><path class="cls-3" d="M379.75,32c2.93,0,5.86,0,8.79.06-.1,12,0,23.94-.05,35.92,5.84,0,11.67,0,17.51,0,0,2.41,0,4.83,0,7.24H379.75Z"/><path class="cls-3" d="M413.75,32c2.93,0,5.88,0,8.82.08-.15,12,0,23.94-.07,35.91,5.83,0,11.66,0,17.5,0v7.25H413.75Z"/></svg>