<svg width="16" height="16" viewBox="0 0 16 16" fill="none" xmlns="http://www.w3.org/2000/svg">
<path d="M16 0H0V16H16V0Z"/>
<path d="M6.75313 6.9719V6.47785C6.58706 6.45558 6.41897 6.44141 6.24885 6.44141C4.18107 6.44141 2.50012 8.124 2.50012 10.1893C2.50012 11.4568 3.13402 12.5805 4.10006 13.2588C3.47629 12.5886 3.10567 11.6917 3.10567 10.7056C3.10364 8.66866 4.72586 7.02049 6.75313 6.9719Z" fill="#25F4EE"/>
<path d="M6.84208 12.4308C7.76356 12.4308 8.5291 11.6857 8.56353 10.7705L8.56556 2.62075L10.044 2.6086C10.0136 2.44055 9.99538 2.26844 9.99538 2.09229H7.96001L7.95596 10.2542C7.92153 11.1673 7.17016 11.9023 6.24665 11.9023C5.95907 11.9023 5.68971 11.8315 5.45276 11.7059C5.76465 12.1372 6.27096 12.4308 6.84208 12.4308Z" fill="#25F4EE"/>
<path d="M12.831 5.39219V4.92447C12.2619 4.92447 11.7312 4.75439 11.2877 4.46484C11.6847 4.92042 12.2214 5.26261 12.831 5.39219Z" fill="#25F4EE"/>
<path d="M11.2877 4.46714C10.8543 3.96905 10.5911 3.3191 10.5911 2.6084H10.0463C10.1901 3.38591 10.6498 4.05004 11.2877 4.46714Z" fill="#FE2C55"/>
<path d="M6.24692 8.47837C5.30316 8.47837 4.53357 9.24576 4.53357 10.1913C4.53357 10.8494 4.90621 11.4204 5.451 11.7059C5.24848 11.4244 5.12697 11.0802 5.12697 10.7077C5.12697 9.7641 5.89453 8.99469 6.84032 8.99469C7.01652 8.99469 7.18664 9.02304 7.34663 9.07366V6.99421C7.18056 6.97194 7.01247 6.95776 6.84032 6.95776C6.80994 6.95776 6.78159 6.95979 6.75121 6.95979V8.55734C6.59324 8.50672 6.42515 8.47837 6.24692 8.47837Z" fill="#FE2C55"/>
<path d="M12.8308 5.38062V6.96399C11.7736 6.96399 10.7954 6.62585 9.99748 6.05284V10.1915C9.99748 12.2588 8.31451 13.9394 6.24876 13.9394C5.44879 13.9394 4.70957 13.6883 4.09998 13.259C4.78451 13.994 5.76067 14.4557 6.84215 14.4557C8.90993 14.4557 10.5909 12.7731 10.5909 10.7078V6.56916C11.3908 7.14217 12.369 7.48031 13.4242 7.48031V5.44338C13.2217 5.44338 13.0232 5.42111 12.8308 5.38062Z" fill="#FE2C55"/>
<path d="M9.99744 10.1892V6.05059C10.7974 6.6236 11.7756 6.96174 12.8308 6.96174V5.37837C12.2212 5.24878 11.6824 4.92077 11.2875 4.46519C10.6496 4.05011 10.1878 3.38396 10.044 2.60645H8.55344L8.55141 10.7724C8.51699 11.6855 7.76562 12.4205 6.84211 12.4205C6.27099 12.4205 5.76468 12.1391 5.45482 11.7078C4.91003 11.4203 4.53738 10.8493 4.53738 10.1933C4.53738 9.24974 5.30495 8.48033 6.25074 8.48033C6.42693 8.48033 6.59705 8.50867 6.75502 8.55929V6.96174C4.72775 7.00831 3.09338 8.67065 3.09338 10.7076C3.09338 11.6936 3.47616 12.5906 4.09993 13.2608C4.70953 13.6881 5.45077 13.9412 6.24871 13.9412C8.31446 13.9391 9.99744 12.2565 9.99744 10.1892Z" fill="black"/>
</svg>
